<?xml version="1.0" encoding="utf-8"?>
<!-- Generator: Adobe Illustrator 22.0.1, SVG Export Plug-In . SVG Version: 6.00 Build 0)  -->
<svg version="1.1" id="Layer_1" xmlns="http://www.w3.org/2000/svg" xmlns:xlink="http://www.w3.org/1999/xlink" x="0px" y="0px"
	 viewBox="0 0 686 681" style="enable-background:new 0 0 686 681;" xml:space="preserve">
<metadata><?xpacket begin="﻿" id="W5M0MpCehiHzreSzNTczkc9d"?>
<x:xmpmeta xmlns:x="adobe:ns:meta/" x:xmptk="Adobe XMP Core 5.6-c143 79.161210, 2017/08/11-10:28:36        ">
   <rdf:RDF xmlns:rdf="http://www.w3.org/1999/02/22-rdf-syntax-ns#">
      <rdf:Description rdf:about=""/>
   </rdf:RDF>
</x:xmpmeta>
                                                                                                    
                                                                                                    
                                                                                                    
                                                                                                    
                                                                                                    
                                                                                                    
                                                                                                    
                                                                                                    
                                                                                                    
                                                                                                    
                                                                                                    
                                                                                                    
                                                                                                    
                                                                                                    
                                                                                                    
                                                                                                    
                                                                                                    
                                                                                                    
                                                                                                    
                                                                                                    
                           
<?xpacket end="w"?></metadata>
<style type="text/css">
	.st0{fill:#1E3564;}
	.st1{fill:#FFFFFF;}
	.st2{display:none;fill:#981B22;}
	.st3{fill:#981B22;stroke:#D9992D;stroke-width:18;stroke-miterlimit:10;}
	.st4{fill:#FFFFFF;stroke:#FFFFFF;stroke-miterlimit:10;}
	.st5{fill:#981B22;stroke:#D9992D;stroke-width:17.0666;stroke-miterlimit:10;}
	.st6{fill:#981B22;stroke:#981B22;stroke-width:5;stroke-miterlimit:10;}
</style>
<g>
	<path class="st0" d="M343.4,126.2c117.4,0,212.9,95.3,212.9,212.5s-95.5,212.5-212.9,212.5s-212.9-95.3-212.9-212.5
		C130.4,221.6,226,126.2,343.4,126.2 M343.4,30.2c-170.7,0-309.1,138.2-309.1,308.6s138.4,308.6,309.1,308.6
		s309.1-138.2,309.1-308.6C652.5,168.3,514.1,30.2,343.4,30.2L343.4,30.2z"/>
</g>
<g>
	<g>
		<path class="st1" d="M137.5,129.3l10.4-8.3c5.4-4.3,9.3-7.1,11.6-8.2c2.5-1.2,5-1.8,7.6-1.8c1.1,0,2.3,0.1,3.4,0.4
			c3.7,0.8,7,2.9,9.6,6.2c2.2,2.8,3.5,5.8,3.9,9c0.4,3.2-0.2,6.3-1.8,9.4c-1.3,2.6-3.7,5.4-7,8.2l35.3,8.6l-7.9,6.4l-35.3-8.6
			l-1.6,1.3l17.9,22.5l-6.4,5.1L137.5,129.3z M160.8,145.4l7.6-6c3.1-2.5,5.2-4.6,6.2-6.4c1-1.7,1.3-3.4,1.1-5.3
			c-0.2-1.8-0.9-3.5-2.1-5.1c-1.2-1.5-2.6-2.5-4.4-3.1c-0.9-0.3-1.8-0.4-2.7-0.4c-0.8,0-1.6,0.1-2.4,0.4c-1.7,0.5-4.3,2.1-7.5,4.7
			l-7.7,6.2L160.8,145.4z"/>
		<path class="st2" d="M167.1,112c1.1,0,2.1,0.1,3.2,0.3c3.5,0.7,6.5,2.7,9.1,5.8c2.1,2.6,3.3,5.5,3.7,8.5s-0.2,5.9-1.7,8.8
			c-1.5,2.9-4.2,5.9-8.3,9.2l35.3,8.6l-6,4.8l-35.3-8.6l-2.7,2.2l17.9,22.5l-4.8,3.9l-38.6-48.5l9.6-7.7c5.4-4.3,9.2-7,11.4-8.1
			C162.3,112.5,164.7,112,167.1,112 M160.7,146.8l8.4-6.6c3.2-2.6,5.4-4.8,6.4-6.7c1.1-1.9,1.5-3.8,1.3-5.9c-0.2-2-1-3.9-2.3-5.6
			c-1.3-1.6-2.9-2.8-4.8-3.4c-1-0.3-2-0.5-3-0.5c-0.9,0-1.8,0.1-2.7,0.4c-1.9,0.6-4.5,2.2-7.8,4.8l-8.5,6.8L160.7,146.8 M167.1,110
			L167.1,110c-2.7,0-5.4,0.6-8,1.9c-2.4,1.2-6.3,3.9-11.8,8.3l-9.6,7.7l-1.6,1.2l1.2,1.6l38.6,48.5l1.3,1.6l1.6-1.3l4.8-3.9l1.6-1.2
			l-1.2-1.6l-16.7-21l0.4-0.3l34.3,8.3l1,0.2l0.8-0.6l6-4.8l3.2-2.5l-3.9-1l-31.5-7.7c2.7-2.5,4.6-4.9,5.8-7.3
			c1.7-3.2,2.3-6.6,1.9-9.9c-0.4-3.4-1.8-6.5-4.1-9.5c-2.8-3.5-6.2-5.7-10.2-6.5C169.6,110.1,168.3,110,167.1,110L167.1,110z
			 M150.4,130.7l7-5.6c3.9-3.1,6-4.1,7.1-4.5c0.7-0.2,1.4-0.3,2.1-0.3c0.8,0,1.6,0.1,2.4,0.4c1.6,0.5,2.8,1.4,3.9,2.7
			c1.1,1.4,1.7,2.9,1.9,4.5c0.2,1.6-0.2,3.2-1,4.7c-0.9,1.6-2.9,3.7-5.9,6.1L161,144L150.4,130.7L150.4,130.7z"/>
	</g>
	<g>
		<polygon class="st1" points="191.7,90.5 224.9,73 228.6,80.2 202.7,93.8 210.7,109.3 236.4,95.8 240.2,103 214.5,116.5 
			224.8,136.3 250.5,122.8 254.2,130 221.3,147.3 		"/>
		<path class="st2" d="M224.4,74.4l2.8,5.4l-25.9,13.6l9,17.2L236,97.2l2.8,5.4L213.1,116l11.3,21.6l25.7-13.5l2.8,5.4l-31.2,16.4
			l-28.7-55L224.4,74.4 M225.3,71.7l-1.8,0.9l-31.4,16.5l-1.8,0.9l0.9,1.8l28.7,55l0.9,1.8l1.8-0.9l31.2-16.4l1.8-0.9l-0.9-1.8
			l-2.8-5.4l-0.9-1.8l-1.8,0.9l-24,12.7l-9.4-18.1l23.9-12.6l1.8-0.9l-0.9-1.8l-2.8-5.4l-0.9-1.8l-1.8,0.9l-23.9,12.6L204,94.3
			l24.2-12.7l1.8-0.9l-0.9-1.8l-2.8-5.4L225.3,71.7L225.3,71.7z"/>
	</g>
	<g>
		<path class="st1" d="M274.1,124.1c-2.2,0-4.4-0.3-6.5-1c-4.3-1.4-7.7-3.9-10-7.5c-1.5-2.2-3-6.3-4.8-12.5l-10.6-37l7.9-2.3
			l10.6,37c1.5,5.2,2.2,7.1,2.5,7.8c0.9,2.1,2.1,3.8,3.5,4.9c1.4,1.2,3.3,1.9,5.6,2.3c0.9,0.2,1.9,0.2,2.8,0.2c1.4,0,2.7-0.2,4-0.6
			c1.8-0.5,3.5-1.4,4.9-2.7c1.4-1.3,2.5-2.8,3.3-4.4c0.7-1.7,1.1-3.6,1-5.8c0-1.5-0.7-4.6-2-9.2l-10.6-37l7.9-2.3l10.6,37
			c1.6,5.4,2.3,10,2.2,13.7c-0.1,3.8-1.4,7.4-3.9,10.9s-6.2,6-10.8,7.3C278.9,123.7,276.4,124.1,274.1,124.1z"/>
		<path class="st2" d="M282.7,55.3l10.3,36c1.5,5.3,2.3,9.8,2.2,13.4c-0.1,3.6-1.3,7-3.7,10.4c-2.4,3.3-5.8,5.6-10.2,6.9
			c-2.5,0.7-4.8,1.1-7.1,1.1c-2.1,0-4.2-0.3-6.2-1c-4.1-1.3-7.2-3.7-9.5-7.1c-1.4-2.1-3-6.2-4.7-12.3l-10.4-36l5.9-1.7l10.4,36
			c1.2,4.3,2.1,6.9,2.5,7.9c1,2.3,2.2,4,3.8,5.3c1.5,1.3,3.6,2.1,6.1,2.5c1,0.2,2,0.2,2.9,0.2c1.5,0,2.9-0.2,4.3-0.6
			c2-0.6,3.7-1.5,5.3-2.9c1.6-1.4,2.7-3,3.5-4.8s1.2-3.9,1.1-6.2c0-1.6-0.7-4.8-2.1-9.5l-10.4-36L282.7,55.3 M284.1,52.8l-1.9,0.6
			l-5.9,1.7l-1.9,0.6l0.6,1.9l10.4,36c1.6,5.6,2,8,2,9c0,2-0.3,3.8-1,5.3s-1.7,2.9-3,4.1s-2.9,2-4.5,2.5c-1.2,0.3-2.4,0.5-3.7,0.5
			c-0.8,0-1.7-0.1-2.6-0.2c-2.2-0.4-3.9-1.1-5.2-2.1c-1.3-1.1-2.4-2.6-3.2-4.6c-0.3-0.6-0.9-2.3-2.5-7.7l-10.4-36l-0.6-1.9l-1.9,0.6
			l-5.9,1.7l-1.9,0.6l0.6,1.9l10.4,36c1.8,6.3,3.4,10.5,5,12.8c2.5,3.8,6,6.5,10.6,7.9c2.2,0.7,4.5,1,6.8,1c2.5,0,5-0.4,7.7-1.2
			c4.8-1.4,8.6-4,11.3-7.7c2.6-3.7,4-7.5,4.1-11.5c0.1-3.8-0.7-8.5-2.2-14l-10.3-36L284.1,52.8L284.1,52.8z"/>
	</g>
	<g>
		<polygon class="st1" points="307.8,49.6 310.6,49.5 352.2,93.6 350.3,47.8 358.3,47.4 361.1,111.5 358.2,111.6 317,68 
			318.9,113.3 310.6,113.6 		"/>
		<path class="st2" d="M357.4,48.5l2.7,62l-1.4,0.1l-42.8-45.2l2,47l-6.4,0.3l-2.7-62l1.3-0.1l43.2,45.8l-2-47.6L357.4,48.5
			 M359.3,46.4l-2,0.1l-6.1,0.3l-2,0.1l0.1,2l1.8,42.2l-39.5-41.9l-0.6-0.7h-0.9l-1.3,0.1l-2,0.1l0.1,2l2.7,62l0.1,2l2-0.1l6.4-0.3
			l2-0.1l-0.1-2l-1.8-41.6l39.1,41.3l0.6,0.7h0.9l1.4-0.1l2-0.1l-0.1-2l-2.7-62L359.3,46.4L359.3,46.4z"/>
	</g>
	<g>
		
			<rect x="346.5" y="78.2" transform="matrix(0.1215 -0.9926 0.9926 0.1215 250.8793 448.1103)" class="st1" width="64.1" height="8.2"/>
		<path class="st2" d="M379.3,51.1l6.1,0.8l-7.5,61.6l-6.1-0.8L379.3,51.1 M377.6,48.9l-0.2,2l-7.5,61.6l-0.2,2l2,0.2l6.1,0.8l2,0.2
			l0.2-2l7.5-61.6l0.2-2l-2-0.2l-6.1-0.8L377.6,48.9L377.6,48.9z"/>
	</g>
	<g>
		<path class="st1" d="M427.9,126.8c-3.4,0-6.9-0.6-10.5-1.7c-9-2.9-15.7-8.4-19.9-16.6c-4.2-8.1-5-16.7-2.2-25.4
			c1.8-5.8,5-10.8,9.4-14.9s9.5-6.8,15.3-8.1c2.4-0.5,4.8-0.8,7.2-0.8c3.3,0,6.7,0.5,10,1.6c9.1,2.9,15.9,8.5,20.2,16.6
			c4.2,8.1,5,16.8,2.1,25.7c-2.8,8.9-8.3,15.5-16.5,19.8C438.1,125.5,433.1,126.8,427.9,126.8z M427.7,67.4c-1.8,0-3.7,0.2-5.6,0.6
			c-4.4,1-8.3,3-11.6,6.1c-3.3,3-5.7,6.9-7.1,11.4c-2.1,6.7-1.6,13.3,1.6,19.4s8.1,10.3,14.7,12.4c2.6,0.8,5.3,1.3,7.9,1.3l0,0
			c1.8,0,3.6-0.2,5.4-0.6c4.4-0.9,8.3-3,11.5-6c3.3-3,5.6-6.9,7.1-11.4c1.4-4.5,1.7-9,0.7-13.3c-0.9-4.3-3-8.2-6.1-11.6
			s-6.8-5.8-11.1-7.2C432.6,67.8,430.2,67.4,427.7,67.4z"/>
		<path class="st2" d="M427.2,60.3c3.3,0,6.5,0.5,9.7,1.5c8.9,2.8,15.5,8.2,19.6,16.1s4.8,16.2,2.1,25c-2.7,8.7-8.1,15.1-16,19.2
			c-4.7,2.5-9.6,3.7-14.6,3.7c-3.3,0-6.7-0.5-10.2-1.6c-8.7-2.8-15.2-8.1-19.3-16.1c-4.1-7.9-4.8-16.1-2.1-24.7
			c1.8-5.7,4.8-10.5,9.1-14.5c4.3-4,9.2-6.6,14.8-7.8C422.5,60.5,424.9,60.3,427.2,60.3 M427.5,119.6c1.9,0,3.7-0.2,5.6-0.6
			c4.6-1,8.6-3.1,12-6.2c3.4-3.2,5.9-7.1,7.3-11.8c1.5-4.7,1.7-9.3,0.8-13.8c-1-4.5-3.1-8.5-6.3-12c-3.2-3.5-7.1-6-11.5-7.4
			c-2.5-0.8-5-1.2-7.6-1.2c-1.9,0-3.9,0.2-5.9,0.7c-4.6,1-8.6,3.1-12.1,6.3c-3.4,3.2-5.9,7.1-7.4,11.9c-2.2,7-1.7,13.8,1.7,20.1
			c3.3,6.4,8.4,10.7,15.3,12.9C422.1,119.2,424.8,119.6,427.5,119.6 M427.2,58.3L427.2,58.3c-2.4,0-4.9,0.3-7.4,0.8
			c-5.9,1.3-11.2,4.1-15.7,8.3c-4.5,4.2-7.8,9.4-9.6,15.4c-2.9,9-2.1,17.8,2.3,26.2c4.3,8.4,11.2,14.1,20.4,17
			c3.6,1.2,7.3,1.7,10.8,1.7c5.3,0,10.5-1.3,15.6-3.9c8.4-4.4,14.1-11.2,16.9-20.4c2.9-9.2,2.2-18.1-2.2-26.5
			c-4.4-8.3-11.3-14.1-20.7-17.1C434.1,58.8,430.6,58.3,427.2,58.3L427.2,58.3z M427.5,117.6c-2.5,0-5.1-0.4-7.6-1.2
			c-6.4-2-11-5.9-14.1-11.9s-3.6-12-1.5-18.6c1.4-4.4,3.7-8.1,6.8-11c3.2-2.9,6.8-4.9,11.1-5.8c1.8-0.4,3.7-0.6,5.4-0.6
			c2.4,0,4.7,0.4,7,1.1c4.1,1.3,7.7,3.6,10.7,6.9c3,3.2,4.9,7,5.8,11.1s0.7,8.4-0.7,12.8c-1.4,4.4-3.6,8.1-6.8,11
			c-3.2,3-6.8,4.8-11.1,5.8C431,117.4,429.2,117.6,427.5,117.6L427.5,117.6z"/>
	</g>
	<g>
		<polygon class="st1" points="495.1,163.8 487,104.2 462.2,142.1 455.2,137.5 490.2,83.9 492.5,85.5 500.6,145.7 525.7,107.4 
			532.5,111.8 497.4,165.4 		"/>
		<path class="st2" d="M490.5,85.3l1.1,0.7l8.4,62.5l26-39.8l5.1,3.4l-34,51.9l-1.2-0.8l-8.4-61.8l-25.7,39.3l-5.3-3.5L490.5,85.3
			 M489.9,82.6l-1.1,1.7l-33.9,51.9l-1.1,1.7l1.7,1.1l5.3,3.5l1.7,1.1l1.1-1.7l22.8-34.8l7.7,56.5l0.1,0.9l0.8,0.5l1.2,0.8l1.7,1.1
			l1.1-1.7l34-51.9l1.1-1.7l-1.7-1.1l-5.1-3.4l-1.7-1.1l-1.1,1.7L501.3,143l-7.7-57.1l-0.1-0.9l-0.8-0.5l-1.1-0.7L489.9,82.6
			L489.9,82.6z"/>
	</g>
</g>
<g>
	<g>
		<polygon class="st1" points="74.6,450.1 112.3,427.7 64.2,425.5 63.1,422.8 95.1,386.2 52.6,397.9 49.4,390.5 113.8,373.1 
			114.8,375.5 77.3,418.4 134,420.9 135,423.2 77.8,457.6 		"/>
		<path class="st2" d="M113.2,374.3l0.4,0.9l-38.5,44l58.2,2.6l0.4,0.9l-55.5,33.4l-2.4-5.6l39.8-23.6l-50.8-2.4l-0.6-1.5L98,384.3
			l-44.9,12.4l-2.3-5.6L113.2,374.3 M114.4,371.9l-1.7,0.5l-62.4,16.9l-2.2,0.6L49,392l2.3,5.6l0.7,1.6l1.7-0.5L92.1,388l-29.4,33.7
			l-0.8,0.9l0.5,1.2l0.6,1.5l0.5,1.2l1.3,0.1l44.1,2.1l-34,20.2l-1.5,0.9l0.7,1.6l2.4,5.6l0.9,2.1l2-1.2l55.5-33.4l1.5-0.9l-0.7-1.6
			l-0.4-0.9l-0.5-1.2l-1.3-0.1l-54-2.4l35.7-40.9l0.8-0.9l-0.5-1.1l-0.4-0.9L114.4,371.9L114.4,371.9z"/>
	</g>
	<g>
		<polygon class="st1" points="84.8,473.1 140.6,437.6 160.8,469.6 153.8,474.1 138,449 122.7,458.8 138.4,483.5 131.4,488 
			115.7,463.2 96.2,475.6 111.8,500.4 104.8,504.9 		"/>
		<path class="st2" d="M140.3,439l19.1,30.3l-5.3,3.4l-15.8-25l-17,10.8l15.6,24.8l-5.3,3.4L116,461.9l-21.3,13.5l15.6,24.8
			l-5.3,3.4l-19-30.1L140.3,439 M140.9,436.2l-1.7,1.1l-54.1,34.4l-1.7,1.1l1.1,1.7l19,30.1l1.1,1.7l1.7-1.1l5.3-3.4l1.7-1.1
			l-1.1-1.7l-14.6-23l17.9-11.4l14.6,23.1l1.1,1.7l1.7-1.1l5.3-3.4l1.7-1.1l-1.1-1.7L124.2,459l13.6-8.6l14.7,23.3l1.1,1.7l1.7-1.1
			l5.3-3.4l1.7-1.1l-1.1-1.7L142,437.9L140.9,436.2L140.9,436.2z"/>
	</g>
	<g>
		<polygon class="st1" points="130.3,535.8 171.9,495.6 162.3,485.5 168.3,479.8 193.3,505.9 187.4,511.7 177.7,501.6 136.1,541.8 
					"/>
		<path class="st2" d="M168.2,481.2l23.7,24.7l-4.5,4.4l-9.6-10.1l-41.6,40.2l-4.4-4.6l41.6-40.2l-9.6-10.1L168.2,481.2
			 M168.3,478.4l-1.4,1.4l-4.5,4.4l-1.4,1.4l1.4,1.4l8.3,8.6l-40.2,38.8l-1.4,1.4l1.4,1.4l4.4,4.6l1.4,1.4l1.4-1.4l40.2-38.8
			l8.3,8.6l1.4,1.5l1.4-1.4l4.5-4.4l1.4-1.4l-1.4-1.4l-23.7-24.7L168.3,478.4L168.3,478.4z"/>
	</g>
	<g>
		<path class="st1" d="M191,588.9l0.2-37.4l-1.6-1.2l-18,23.7l-6.5-5l40.1-52.7l10.7,8.2c5.6,4.3,9.2,7.4,10.8,9.4
			c2.5,3.1,3.9,6.7,4,10.6c0.1,3.9-1.2,7.7-3.9,11.2c-2.2,2.9-4.9,5-7.9,6.2c-1.9,0.7-3.8,1.1-5.8,1.1c-1.3,0-2.6-0.2-3.9-0.5
			c-2.9-0.7-6.2-2.3-9.8-4.8l-0.2,37.4L191,588.9z M202.3,549.7c3.2,2.4,5.8,3.9,7.7,4.5c0.8,0.2,1.6,0.3,2.4,0.3l0,0
			c1,0,2.1-0.2,3.1-0.6c1.8-0.7,3.3-1.8,4.5-3.4c1.2-1.5,1.9-3.3,2-5.2s-0.2-3.6-1.1-5.1c-0.9-1.6-3.1-3.7-6.3-6.2l-7.9-6.1
			l-12,15.8L202.3,549.7z"/>
		<path class="st2" d="M205.3,517.7l9.9,7.6c5.5,4.2,9,7.3,10.6,9.3c2.4,3,3.7,6.3,3.8,10s-1.1,7.2-3.7,10.5
			c-2.1,2.8-4.6,4.7-7.5,5.9c-1.7,0.7-3.5,1-5.4,1c-1.2,0-2.4-0.1-3.7-0.4c-3.2-0.7-6.8-2.7-11-5.8l-0.2,37.4l-6.1-4.7l0.2-37.4
			l-2.8-2.1l-18,23.7l-5-3.8L205.3,517.7 M212.5,555.5c1.2,0,2.3-0.2,3.4-0.6c2-0.7,3.6-2,5-3.7c1.3-1.7,2-3.6,2.2-5.7
			c0.2-2.1-0.3-4-1.3-5.7s-3.2-3.9-6.6-6.5l-8.7-6.7L193.3,544l8.5,6.6c3.3,2.5,6,4.1,8.1,4.7C210.7,555.4,211.6,555.5,212.5,555.5
			 M204.9,514.9l-1.2,1.6l-38.9,51.1l-1.2,1.6l1.6,1.2l5,3.8l1.6,1.2l1.2-1.6l16.8-22.1l0.4,0.3l-0.2,36.4v1l0.8,0.6l6.1,4.7
			l3.2,2.4v-4l0.2-33.6c3.1,2,6,3.4,8.6,3.9c1.4,0.3,2.8,0.5,4.1,0.5c2.1,0,4.2-0.4,6.1-1.2c3.2-1.3,6-3.5,8.3-6.5
			c2.8-3.7,4.2-7.7,4.1-11.8c-0.1-4.1-1.5-7.9-4.2-11.2c-1.7-2.1-5.3-5.2-11-9.6l-9.9-7.6L204.9,514.9L204.9,514.9z M196,543.5
			l10.8-14.2l7.1,5.5c4,3,5.5,4.9,6.1,5.9c0.8,1.4,1.1,2.9,1,4.6c-0.1,1.7-0.7,3.3-1.8,4.6c-1.1,1.5-2.4,2.5-4.1,3.1
			c-0.9,0.3-1.8,0.5-2.7,0.5c-0.7,0-1.4-0.1-2.1-0.3c-1.8-0.5-4.3-2-7.4-4.3L196,543.5L196,543.5z"/>
	</g>
	<g>
		<path class="st1" d="M259.4,620.4c-3.6,0-7.2-0.6-10.9-1.9c-9-3.1-15.6-8.9-19.6-17.3c-4-8.4-4.5-17.3-1.5-26.3
			c2-6,5.3-11.1,9.9-15.3c4.5-4.2,9.8-6.9,15.6-8.2c2.3-0.5,4.6-0.7,6.9-0.7c3.5,0,7,0.6,10.4,1.8c9.2,3.1,15.9,9,19.9,17.4
			s4.5,17.4,1.4,26.6c-3.1,9.1-8.8,15.9-17.1,20.2C269.5,619.1,264.4,620.4,259.4,620.4z M260.2,559.1c-1.8,0-3.6,0.2-5.4,0.6
			c-4.5,1-8.5,3-11.9,6.1s-5.9,7-7.5,11.8c-2.3,7-2,13.7,1.1,20.1c3,6.4,7.9,10.7,14.5,12.9c2.7,0.9,5.5,1.4,8.2,1.4l0,0
			c1.7,0,3.4-0.2,5.1-0.5c4.5-0.9,8.4-3,11.8-6.1s5.9-7,7.5-11.7c1.6-4.6,1.9-9.3,1.1-13.7c-0.8-4.5-2.8-8.5-5.8-12.1
			c-3-3.5-6.7-6.1-11-7.5C265.3,559.6,262.8,559.1,260.2,559.1z"/>
		<path class="st2" d="M259.8,551.8c3.4,0,6.8,0.6,10.1,1.7c8.9,3,15.4,8.7,19.3,16.9s4.4,16.8,1.4,25.8c-3,8.9-8.6,15.5-16.7,19.6
			c-4.8,2.4-9.6,3.7-14.5,3.7c-3.5,0-7-0.6-10.6-1.8c-8.8-3-15.1-8.6-19-16.8s-4.4-16.7-1.5-25.5c2-5.9,5.2-10.8,9.6-14.9
			c4.4-4.1,9.5-6.7,15.2-7.9C255.3,552,257.5,551.8,259.8,551.8 M259.1,613c1.8,0,3.6-0.2,5.4-0.6c4.7-1,8.8-3.1,12.3-6.3
			s6.1-7.3,7.7-12.1s2-9.6,1.2-14.2c-0.9-4.7-2.9-8.8-6.1-12.5s-7-6.3-11.4-7.8c-2.6-0.9-5.2-1.3-7.9-1.3c-1.9,0-3.7,0.2-5.7,0.6
			c-4.7,1-8.8,3.1-12.4,6.4c-3.5,3.2-6.1,7.3-7.8,12.2c-2.4,7.2-2.1,14.2,1.1,20.8c3.2,6.6,8.2,11.1,15.1,13.5
			C253.4,612.6,256.2,613,259.1,613 M259.8,549.8L259.8,549.8c-2.3,0-4.7,0.3-7.1,0.8c-6,1.3-11.4,4.1-16.1,8.4
			c-4.7,4.3-8.1,9.5-10.1,15.7c-3.1,9.2-2.6,18.3,1.6,27c4.2,8.7,11,14.7,20.2,17.8c3.8,1.3,7.5,1.9,11.2,1.9
			c5.2,0,10.4-1.3,15.4-3.9c8.5-4.4,14.5-11.4,17.6-20.8c3.2-9.5,2.7-18.6-1.5-27.3s-11.1-14.7-20.5-17.9
			C267,550.4,263.4,549.8,259.8,549.8L259.8,549.8z M259.1,611c-2.6,0-5.3-0.4-7.9-1.3c-6.4-2.2-10.9-6.2-13.9-12.4
			s-3.3-12.5-1-19.3c1.5-4.5,4-8.4,7.2-11.3c3.2-3,7.1-5,11.4-5.9c1.8-0.4,3.5-0.6,5.2-0.6c2.5,0,4.9,0.4,7.3,1.2
			c4.1,1.4,7.6,3.8,10.6,7.2c2.9,3.4,4.8,7.3,5.6,11.6c0.8,4.3,0.4,8.7-1.1,13.2s-4,8.3-7.2,11.3s-7.1,4.9-11.3,5.8
			C262.4,610.9,260.7,611,259.1,611L259.1,611z"/>
	</g>
	<g>
		<path class="st1" d="M322.6,567.1l13.9-0.7c2.4-0.1,4.7-0.2,6.8-0.2c6,0,10.7,0.5,13.9,1.5c6.3,1.9,11.4,5.6,15.2,11
			c3.8,5.3,5.9,11.9,6.2,19.5c0.3,6.6-0.8,12.5-3.3,17.7s-6,9.1-10.3,11.8c-4.3,2.6-10.5,4.1-18.4,4.5l-20.8,1L322.6,567.1z
			 M333.4,624.9l6.2-0.3c8.5-0.4,14.3-1.3,17.5-2.5c4.4-1.7,7.8-4.6,10.1-8.6c2.4-4,3.4-8.9,3.1-14.6c-0.3-6-2-11-5-15.1
			c-3-4-7-6.7-12-8.1c-2.7-0.7-6.6-1-11.7-1c-2.2,0-4.7,0.1-7.4,0.2l-3.4,0.2L333.4,624.9z"/>
		<path class="st2" d="M343.2,567.3c5.9,0,10.5,0.5,13.7,1.5c6.1,1.9,11,5.4,14.7,10.6c3.7,5.2,5.7,11.5,6,19
			c0.3,6.4-0.7,12.2-3.2,17.2s-5.8,8.8-10,11.3s-10.2,4-17.9,4.4l-19.8,1l-3.2-64.2l12.9-0.6C338.9,567.3,341.2,567.3,343.2,567.3
			 M332.5,625.9l7.2-0.4c8.6-0.4,14.5-1.3,17.8-2.6c4.6-1.8,8.1-4.8,10.6-9s3.6-9.3,3.3-15.2c-0.3-6.2-2-11.4-5.1-15.7
			c-3.1-4.2-7.3-7.1-12.6-8.4c-2.8-0.7-6.7-1.1-11.9-1.1c-2.2,0-4.7,0.1-7.4,0.2l-4.4,0.2L332.5,625.9 M343.2,565.3
			c-2.1,0-4.4,0.1-6.8,0.2l-12.9,0.6l-2,0.1l0.1,2l3.2,64.2l0.1,2l2-0.1l19.8-1c8.1-0.4,14.4-2,18.8-4.7c4.5-2.7,8.1-6.8,10.7-12.2
			c2.6-5.3,3.7-11.4,3.4-18.2c-0.4-7.8-2.5-14.5-6.4-20c-3.9-5.6-9.2-9.4-15.8-11.4C354.1,565.8,349.4,565.3,343.2,565.3
			L343.2,565.3z M332,576l2.4-0.1c2.7-0.1,5.1-0.2,7.3-0.2c5,0,8.8,0.3,11.4,1c4.8,1.3,8.7,3.8,11.5,7.7c2.9,3.9,4.5,8.8,4.8,14.6
			c0.3,5.5-0.7,10.2-3,14.1c-2.3,3.9-5.4,6.5-9.6,8.2c-3,1.2-8.8,2-17.2,2.4l-5.2,0.3L332,576L332,576z"/>
	</g>
	<g>
		<polygon class="st1" points="383.9,564.1 391.9,562.3 406.3,627 398.3,628.8 		"/>
		<path class="st2" d="M391.1,563.5l14,62.8l-6.1,1.4l-14-62.8L391.1,563.5 M392.6,561.1l-2,0.4l-6.1,1.4l-1.9,0.4l0.4,1.9l14,62.8
			l0.4,2l2-0.4l6.1-1.4l1.9-0.4l-0.4-1.9l-14-62.8L392.6,561.1L392.6,561.1z"/>
	</g>
	<g>
		<path class="st1" d="M432.1,618.5c-1.5,0-3.1-0.2-4.7-0.6c-3.7-0.9-7.8-3.4-12-7.2l-0.7-0.6l5.1-6.5l0.8,0.7
			c4.3,3.9,8.2,5.9,11.7,5.9c1,0,2.1-0.2,3-0.5c1.8-0.7,3.3-1.7,4.6-3.1c1.3-1.4,2-3,2.3-4.7s0.2-3.4-0.4-5
			c-0.7-1.8-1.9-3.4-3.8-4.8c-2.7-1.9-7.2-3.9-13.3-5.9c-6.4-2.1-10.5-3.7-12.4-5.1c-3.2-2.2-5.5-5.1-6.8-8.6
			c-1-2.8-1.3-5.6-0.8-8.4c0.5-2.8,1.7-5.3,3.5-7.5c1.9-2.2,4.2-3.8,7-4.8c1.9-0.7,3.8-1,5.8-1c1.1,0,2.1,0.1,3.2,0.3
			c3,0.6,6.7,2.3,10.8,5.2l0.8,0.5l-4.5,7.2l-0.9-0.6c-3.2-2.1-5.7-3.4-7.4-3.8c-0.6-0.1-1.3-0.2-1.9-0.2c-1.1,0-2.1,0.2-3.2,0.6
			c-2.1,0.8-3.6,2-4.4,3.8c-0.9,1.8-0.9,3.6-0.2,5.5c0.4,1.2,1.1,2.3,2,3.2s2.3,1.9,4.1,2.8c1,0.5,4.2,1.6,9.6,3.2
			c6.7,2.1,11.4,4.3,14.5,6.7s5.3,5.3,6.4,8.5c1.7,4.6,1.4,9.3-0.8,14c-2.2,4.6-5.7,7.9-10.6,9.6
			C436.5,618.1,434.3,618.5,432.1,618.5z"/>
		<path class="st2" d="M421.2,551.8c1,0,2,0.1,3,0.3c2.9,0.5,6.4,2.2,10.4,5l-3.4,5.5c-3.3-2.2-5.9-3.5-7.8-3.9
			c-0.7-0.1-1.4-0.2-2.1-0.2c-1.2,0-2.3,0.2-3.5,0.6c-2.4,0.9-4,2.3-5,4.3s-1.1,4.1-0.3,6.3c0.5,1.3,1.2,2.5,2.2,3.5s2.4,2,4.4,3
			c1,0.5,4.3,1.6,9.7,3.3c6.5,2,11.2,4.2,14.1,6.5c3,2.3,5,5,6.1,8.1c1.6,4.4,1.3,8.8-0.7,13.2c-2.1,4.4-5.4,7.4-10,9.1
			c-2.1,0.8-4.2,1.1-6.3,1.1c-1.5,0-3-0.2-4.4-0.6c-3.6-0.9-7.5-3.2-11.6-6.9l3.9-4.9c4.5,4.1,8.6,6.2,12.4,6.2
			c1.2,0,2.3-0.2,3.4-0.6c2-0.7,3.6-1.9,5-3.4c1.4-1.6,2.2-3.3,2.6-5.2c0.3-1.9,0.2-3.8-0.5-5.6c-0.7-2-2.1-3.8-4.1-5.2
			c-2.8-2-7.3-4-13.5-6c-6.3-2-10.3-3.7-12.1-5c-3.1-2.1-5.2-4.8-6.4-8.1c-1-2.6-1.2-5.3-0.8-7.9c0.4-2.6,1.5-4.9,3.3-7
			s4-3.6,6.6-4.5C417.5,552.1,419.4,551.8,421.2,551.8 M421.2,549.8c-2.1,0-4.2,0.4-6.2,1.1c-2.9,1.1-5.4,2.8-7.4,5.1s-3.3,5-3.8,8
			s-0.2,5.9,0.9,8.9c1.3,3.7,3.7,6.8,7.2,9.1c2,1.4,6.1,3.1,12.6,5.2c6,1.9,10.4,3.9,13,5.8c1.7,1.2,2.8,2.6,3.4,4.3
			c0.5,1.5,0.7,2.9,0.4,4.5c-0.3,1.6-1,3-2.1,4.3c-1.2,1.3-2.6,2.3-4.2,2.9c-0.9,0.3-1.8,0.5-2.7,0.5c-3.2,0-6.9-1.9-11-5.6
			l-1.6-1.4l-1.3,1.7l-3.9,4.9l-1.2,1.5l1.4,1.3c4.3,3.9,8.5,6.4,12.4,7.4c1.6,0.4,3.3,0.6,4.9,0.6c2.3,0,4.7-0.4,7-1.3
			c5.1-1.9,8.9-5.3,11.1-10.2c2.3-4.9,2.6-9.8,0.8-14.7c-1.2-3.4-3.5-6.4-6.8-9c-3.2-2.5-8-4.7-14.8-6.9c-6.7-2.1-8.8-2.9-9.5-3.2
			c-1.7-0.8-2.9-1.7-3.7-2.5c-0.8-0.8-1.4-1.8-1.7-2.8c-0.6-1.7-0.5-3.2,0.2-4.8c0.7-1.5,2-2.6,3.9-3.3c0.9-0.3,1.9-0.5,2.8-0.5
			c0.6,0,1.1,0.1,1.7,0.2c1.1,0.2,3.3,1.1,7.1,3.6l1.7,1.1l1.1-1.8l3.4-5.5l1-1.6l-1.6-1.1c-4.3-3-8-4.7-11.2-5.3
			C423.5,549.9,422.3,549.8,421.2,549.8L421.2,549.8z"/>
	</g>
	<g>
		<polygon class="st1" points="457.5,542.4 445.3,549.2 441.3,541.9 472.9,524.3 476.9,531.6 464.8,538.3 492.8,589.1 485.5,593.1 
					"/>
		<path class="st2" d="M472.5,525.7l3,5.5l-12.1,6.8l28,50.7l-5.6,3.1l-28-50.7l-12.2,6.8l-3-5.5L472.5,525.7 M473.3,523l-1.8,1
			l-29.9,16.6l-1.7,1l1,1.7l3,5.5l1,1.8l1.8-1l10.4-5.8l27,49l1,1.8l1.8-1l5.6-3.1l1.7-1l-1-1.7l-27.1-49l10.4-5.8l1.7-1l-1-1.7
			l-3-5.5L473.3,523L473.3,523z"/>
	</g>
	<g>
		<path class="st1" d="M480.1,518.1l10.4-8.5c5.4-4.4,9.3-7.3,11.6-8.4c2.5-1.2,5.1-1.8,7.7-1.8c1.2,0,2.3,0.1,3.5,0.4
			c3.8,0.8,7.2,2.9,10,6.3c2.3,2.8,3.7,5.9,4.2,9.2c0.5,3.3-0.1,6.5-1.6,9.6c-1.3,2.7-3.6,5.5-6.9,8.5l36.2,8.8l-7.9,6.5l-36.2-8.8
			l-1.6,1.3l18.9,23.1l-6.4,5.2L480.1,518.1z M504.2,534.6l7.6-6.1c3.1-2.5,5.2-4.7,6.1-6.5c0.9-1.7,1.3-3.5,1-5.4
			c-0.2-1.9-1-3.6-2.3-5.2c-1.3-1.5-2.8-2.6-4.6-3.2c-0.9-0.3-1.9-0.5-2.8-0.5c-0.8,0-1.7,0.1-2.5,0.4c-1.8,0.5-4.3,2.1-7.5,4.8
			l-7.7,6.4L504.2,534.6z"/>
		<path class="st2" d="M509.7,500.3c1.1,0,2.2,0.1,3.3,0.3c3.6,0.7,6.7,2.7,9.4,6c2.2,2.7,3.5,5.6,4,8.7c0.4,3.1,0,6.1-1.5,9
			c-1.4,2.9-4.2,6.1-8.2,9.4l36.2,8.8l-6,4.9l-36.2-8.8l-2.7,2.3l18.9,23.1l-4.8,4l-40.6-49.7l9.6-7.9c5.3-4.4,9.2-7.2,11.4-8.3
			C504.8,500.9,507.2,500.3,509.7,500.3 M504.1,536l8.3-6.8c3.2-2.6,5.3-4.9,6.4-6.8c1-1.9,1.4-3.9,1.1-6c-0.3-2.1-1.1-4-2.5-5.7
			s-3-2.8-5-3.5c-1-0.3-2.1-0.5-3.1-0.5c-0.9,0-1.8,0.1-2.8,0.4c-1.9,0.6-4.5,2.2-7.8,5l-8.5,7L504.1,536 M509.7,498.3L509.7,498.3
			c-2.8,0-5.5,0.7-8.1,2c-2.4,1.2-6.3,4-11.8,8.5l-9.6,7.9l-1.5,1.3l1.3,1.5l40.6,49.7l1.3,1.6l1.5-1.3l4.8-4l1.5-1.3l-1.3-1.5
			l-17.6-21.5l0.4-0.3l35.2,8.6l1,0.2l0.8-0.6l6-4.9l3.1-2.5l-3.9-0.9l-32.5-7.9c2.7-2.6,4.6-5.1,5.8-7.5c1.6-3.3,2.2-6.7,1.7-10.2
			c-0.5-3.4-2-6.7-4.4-9.6c-3-3.6-6.5-5.9-10.5-6.7C512.2,498.4,510.9,498.3,509.7,498.3L509.7,498.3z M493.1,519.4l7-5.7
			c3.8-3.2,6-4.2,7.1-4.6c0.7-0.2,1.5-0.3,2.2-0.3c0.8,0,1.6,0.1,2.4,0.4c1.6,0.5,3,1.4,4.1,2.8c1.2,1.4,1.8,3,2.1,4.7
			c0.2,1.7-0.1,3.3-0.9,4.8c-0.9,1.7-2.9,3.8-5.9,6.2l-6.8,5.5L493.1,519.4L493.1,519.4z"/>
	</g>
	<g>
		<polygon class="st1" points="518.1,481.6 523.6,475.5 572.5,520 567,526.1 		"/>
		<path class="st2" d="M523.7,476.9l47.4,43.2l-4.2,4.6l-47.4-43.2L523.7,476.9 M523.5,474.1l-1.3,1.5l-4.2,4.6l-1.3,1.5l1.5,1.3
			l47.4,43.2l1.5,1.4l1.3-1.5l4.2-4.6l1.3-1.5l-1.5-1.3L525,475.4L523.5,474.1L523.5,474.1z"/>
	</g>
	<g>
		<path class="st1" d="M575.4,491.5c-6.6,0-13.1-2-19.3-5.8c-8.2-5.1-13.4-12.3-15.5-21.3c-2.1-9.1-0.6-17.9,4.7-26.3
			c3.1-5.1,7-9.1,11.6-11.9s9.7-4.4,15-4.7l0.9-0.1l0.9,8.2l-1,0.1c-4.3,0.4-8.3,1.7-11.7,3.8c-3.4,2.2-6.4,5.1-8.7,8.9
			c-2.5,4.1-3.9,8.5-4,13.2s0.9,9.1,3.1,13.1c2.2,4,5.5,7.4,9.7,10c4.5,2.8,9.3,4.3,14.1,4.3c1.9,0,3.9-0.2,5.9-0.7
			c6.9-1.6,12.4-5.7,16.4-12.2c4.4-7.1,5.3-15,2.5-23.4l-0.3-0.9l7.7-2.9l0.4,0.9c1.9,4.9,2.5,10.1,1.9,15.4s-2.4,10.5-5.5,15.5
			c-5.9,9.5-13.9,15.1-23.8,16.5C578.7,491.3,577.1,491.5,575.4,491.5z"/>
		<path class="st2" d="M572,422.4l0.7,6.2c-4.5,0.4-8.6,1.7-12.2,4c-3.6,2.3-6.6,5.3-9,9.2c-2.6,4.2-4,8.8-4.2,13.7
			c-0.2,4.9,0.9,9.5,3.2,13.6c2.3,4.2,5.6,7.6,10,10.4c4.7,2.9,9.6,4.4,14.6,4.4c2,0,4.1-0.2,6.1-0.7c7.2-1.7,12.9-5.9,17.1-12.7
			c4.6-7.4,5.5-15.5,2.6-24.3l5.8-2.2c1.8,4.8,2.4,9.8,1.9,14.9c-0.6,5.1-2.3,10.1-5.4,15c-5.7,9.3-13.5,14.7-23.1,16.1
			c-1.6,0.2-3.2,0.3-4.8,0.3c-6.4,0-12.7-1.9-18.7-5.7c-8-5-13-11.9-15-20.7c-2.1-8.8-0.6-17.4,4.5-25.6c3.1-5,6.8-8.8,11.3-11.6
			C562,424.2,566.8,422.7,572,422.4 M573.8,420.3l-1.9,0.1c-5.5,0.3-10.7,1.9-15.5,4.8c-4.7,2.9-8.8,7-12,12.2
			c-5.3,8.6-7,17.8-4.8,27.1c2.2,9.3,7.5,16.7,15.9,22c6.4,4,13,6,19.8,6c1.7,0,3.4-0.1,5.1-0.4c10.2-1.5,18.5-7.2,24.5-17
			c3.2-5.1,5.1-10.5,5.7-15.9c0.6-5.4-0.1-10.8-2-15.8l-0.7-1.9l-1.9,0.7l-5.8,2.2l-1.8,0.7l0.6,1.8c2.7,8.2,1.9,15.6-2.4,22.6
			c-3.9,6.4-9.1,10.2-15.8,11.8c-1.9,0.4-3.8,0.7-5.7,0.7c-4.6,0-9.1-1.4-13.5-4.1c-4.1-2.5-7.2-5.8-9.3-9.6
			c-2.1-3.9-3.1-8.1-3-12.6s1.4-8.8,3.9-12.7c2.2-3.6,5-6.5,8.3-8.5c3.3-2.1,7.1-3.3,11.3-3.7l2-0.2l-0.2-2l-0.7-6.2L573.8,420.3
			L573.8,420.3z"/>
	</g>
	<g>
		<polygon class="st1" points="574.7,397.4 570.1,410.5 562.3,407.7 574.4,373.6 582.2,376.3 577.5,389.5 632,409 629.2,416.8 		"/>
		<path class="st2" d="M575,374.8l5.9,2.1l-4.7,13.2l54.4,19.5l-2.1,6l-54.4-19.5l-4.7,13.1l-5.9-2.1L575,374.8 M573.8,372.3
			l-0.7,1.9l-11.5,32.3l-0.7,1.9l1.9,0.7l5.9,2.1l1.9,0.7l0.7-1.9l4-11.3l52.5,18.8l1.9,0.7l0.7-1.9l2.1-6l0.7-1.9l-1.9-0.7
			l-52.5-18.8l4-11.3l0.7-1.9l-1.9-0.7l-5.9-2.1L573.8,372.3L573.8,372.3z"/>
	</g>
</g>
<g>
	<path class="st3" d="M342.8,20.7c176.6,0,319.8,143,319.8,319.4S519.4,659.5,342.8,659.5S23,516.5,23,340.1S166.2,20.7,342.8,20.7
		 M342.8,15.9c-86.7,0-168.2,33.7-229.5,95C52,172.1,18.2,253.5,18.2,340.1s33.8,168,95.1,229.3c61.3,61.2,142.8,95,229.5,95
		s168.2-33.7,229.5-95c61.3-61.2,95.1-142.6,95.1-229.3c0-86.6-33.8-168-95.1-229.2C511,49.6,429.5,15.9,342.8,15.9L342.8,15.9z"/>
</g>
<path class="st4" d="M135.1,180c0,3.4-2.8,6.2-6.3,6.2c-3.4,0-6.3-2.8-6.3-6.2s2.8-6.2,6.3-6.2S135.1,176.6,135.1,180z"/>
<path class="st4" d="M104.8,228.4c0,3.4-2.8,6.2-6.3,6.2s-6.3-2.8-6.3-6.2s2.8-6.2,6.3-6.2C102,222.1,104.8,224.9,104.8,228.4z"/>
<path class="st4" d="M79.9,343.5c0,3.4-2.8,6.2-6.2,6.2c-3.5,0-6.3-2.8-6.3-6.2c0-3.4,2.8-6.2,6.3-6.2
	C77.1,337.3,79.9,340.1,79.9,343.5z"/>
<path class="st4" d="M86.2,283.4c0,3.4-2.8,6.2-6.3,6.2s-6.3-2.8-6.3-6.2c0-3.4,2.8-6.2,6.3-6.2C83.4,277.2,86.2,280,86.2,283.4z"/>
<path class="st4" d="M616.6,341.9c0,3.4-2.8,6.2-6.2,6.2c-3.5,0-6.3-2.8-6.3-6.2c0-3.4,2.8-6.2,6.3-6.2
	C613.8,335.7,616.6,338.5,616.6,341.9z"/>
<path class="st4" d="M612,283.4c0,3.4-2.8,6.2-6.2,6.2c-3.5,0-6.3-2.8-6.3-6.2c0-3.4,2.8-6.2,6.3-6.2C609.2,277.2,612,280,612,283.4
	z"/>
<path class="st4" d="M591.2,228.4c0,3.4-2.8,6.2-6.3,6.2s-6.3-2.8-6.3-6.2s2.8-6.2,6.3-6.2C588.4,222.1,591.2,224.9,591.2,228.4z"/>
<path class="st4" d="M559.2,180c0,3.4-2.8,6.2-6.3,6.2s-6.3-2.8-6.3-6.2s2.8-6.2,6.3-6.2S559.2,176.6,559.2,180z"/>
<g>
	<path class="st5" d="M472.2,412.4l-36.1-67.8c10-4.9,18.1-12.4,24.3-22.7c6.2-10.4,9.3-22,9.3-34.8c0-17-5.1-31.8-15.2-44.4
		c-10-12.3-23.1-20.3-39.2-24c-5.7-1.3-12-2.3-18.9-3.1c-6.8-0.8-15-1.4-24.6-1.8c-9.6-0.4-20-0.6-31.3-0.6h-125v51.7h20.3
		L235.2,412l-19.7,0.4v47.8h105.1l0.2-59.1v-41.7h30.7l26.1,52.7h-18.3v48.2h6.2h17.4h101.5v-47.8h-12.2V412.4z M372.1,306
		c-3.4,3.9-7.6,6.3-12.6,7.1c-4.6,0.8-13.5,1.2-26.5,1.2h-9.9v-47.1h8.1c13.5,0,22.7,0.4,27.8,1.2c5.3,0.8,9.6,3.2,13.1,7.1
		c3.4,3.8,5.1,8.9,5.1,15.3C377.2,297.3,375.5,302.4,372.1,306z"/>
</g>
<g>
	<path class="st6" d="M343.3,28.7c171.8,0,311,139.1,311,310.6c0,171.6-139.3,310.6-311,310.6c-171.8,0-311-139.1-311-310.6
		C32.2,167.8,171.5,28.7,343.3,28.7 M343.3,24C259,24,179.7,56.8,120,116.4c-59.6,59.6-92.5,138.7-92.5,223
		c0,84.2,32.8,163.4,92.5,223c59.6,59.6,138.9,92.4,223.3,92.4c84.3,0,163.6-32.8,223.3-92.4c59.6-59.6,92.5-138.7,92.5-223
		c0-84.2-32.8-163.4-92.5-223S427.6,24,343.3,24L343.3,24z"/>
</g>
<g>
	<path class="st6" d="M344.1,130.4c116.1,0,210.2,94,210.2,209.9s-94.1,209.9-210.2,209.9s-210.2-94-210.2-209.9
		C133.8,224.4,228,130.4,344.1,130.4 M344.1,127.3c-57,0-110.6,22.2-150.9,62.4c-40.3,40.3-62.5,93.8-62.5,150.7
		s22.2,110.4,62.5,150.7c40.3,40.2,93.9,62.4,150.9,62.4s110.6-22.2,150.9-62.4c40.3-40.3,62.5-93.8,62.5-150.7S535.3,230,495,189.7
		C454.6,149.4,401.1,127.3,344.1,127.3L344.1,127.3z"/>
</g>
</svg>
