<?xml version="1.0" encoding="utf-8"?>
<!-- Generator: Adobe Illustrator 23.0.1, SVG Export Plug-In . SVG Version: 6.00 Build 0)  -->
<svg version="1.1" id="Layer_1" xmlns="http://www.w3.org/2000/svg" xmlns:xlink="http://www.w3.org/1999/xlink" x="0px" y="0px"
	 viewBox="0 0 259.7 135.4" style="enable-background:new 0 0 259.7 135.4;" xml:space="preserve">
<style type="text/css">
	.st0{fill:#1E3464;}
	.st1{fill:none;stroke:#1E3464;stroke-width:2.2694;stroke-linecap:round;stroke-miterlimit:10;}
	.st2{fill:#D9982C;}
	.st3{fill:#1E3565;}
	.st4{fill:#FFFFFF;}
</style>
<path class="st0" d="M9.8,122.6c-0.1,0-0.1,0-0.1,0.1L9,124.7c-0.1,0.3-0.2,0.6-0.2,0.8c0,0.2,0.2,0.3,0.4,0.3c0,0,0.1,0,0.1,0
	c0.1,0,0.2,0,0.2,0.1c0,0.1-0.1,0.1-0.2,0.1c-0.3,0-0.7,0-0.9,0c-0.1,0-0.8,0-1.3,0c-0.2,0-0.2,0-0.2-0.1c0,0,0.1-0.1,0.2-0.1
	c0.1,0,0.2,0,0.3,0c0.5-0.1,0.8-0.5,1-1.1l2.7-7.3c0.1-0.4,0.2-0.5,0.3-0.5s0.1,0.1,0.3,0.4c0.2,0.4,2,5.3,2.7,7.1
	c0.4,1,0.8,1.2,1,1.3c0.2,0.1,0.4,0.1,0.5,0.1c0.1,0,0.1,0,0.1,0.1c0,0.1-0.1,0.1-0.2,0.1c-0.2,0-1,0-1.8,0c-0.2,0-0.4,0-0.4-0.1
	c0,0,0-0.1,0.1-0.1c0.1,0,0.1-0.1,0.1-0.3l-1.1-2.9c0,0,0-0.1-0.1-0.1H9.8z M12.2,122.2C12.2,122.2,12.2,122.1,12.2,122.2l-1.1-3.2
	c-0.1-0.2-0.1-0.2-0.2,0l-1,3.2c0,0.1,0,0.1,0,0.1H12.2z"/>
<path class="st0" d="M18.5,118.8c0-0.4,0-0.5,0.1-0.5c0.1,0,0.3,0.2,0.4,0.3c0.1,0.1,1.7,1.8,3.4,3.5c0.9,0.9,2.1,2.1,2.4,2.4
	l-0.1-4.9c0-0.6-0.1-0.8-0.4-0.9c-0.2,0-0.4,0-0.5,0c-0.1,0-0.1,0-0.1-0.1c0-0.1,0.1-0.1,0.2-0.1c0.5,0,1,0,1.1,0c0.1,0,0.5,0,0.9,0
	c0.1,0,0.2,0,0.2,0.1c0,0,0,0.1-0.1,0.1s-0.2,0-0.3,0c-0.3,0.1-0.4,0.2-0.4,0.9l0,5.9c0,0.6,0,0.6-0.1,0.6s-0.2-0.1-0.8-0.6
	c0,0-1.7-1.6-2.7-2.6c-1.2-1.3-2.4-2.5-2.7-2.8l0.2,4.6c0,0.8,0.1,1.1,0.4,1.2c0.2,0,0.4,0,0.5,0c0.1,0,0.1,0,0.1,0.1
	c0,0.1-0.1,0.1-0.2,0.1c-0.6,0-1.1,0-1.1,0c-0.1,0-0.5,0-1,0c-0.1,0-0.2,0-0.2-0.1c0,0,0-0.1,0.2-0.1c0.1,0,0.2,0,0.4,0
	c0.3-0.1,0.3-0.4,0.3-1.3C18.5,119,18.5,120.8,18.5,118.8z"/>
<path class="st0" d="M33.7,121.6c0-1.9,1.4-4.6,4.6-4.6c2.6,0,4.6,1.7,4.6,4.4c0,2.6-1.9,4.8-4.7,4.8
	C35.1,126.2,33.7,123.7,33.7,121.6z M41.8,121.7c0-2.8-1.7-4.3-3.6-4.3c-2,0-3.4,1.3-3.4,3.9c0,2.7,1.6,4.5,3.7,4.5
	C39.7,125.8,41.8,125.1,41.8,121.7z"/>
<path class="st0" d="M47.1,123.2c-0.1,0-0.1,0-0.1,0.1l-0.5,1.5c-0.1,0.3-0.2,0.6-0.2,0.8c0,0.2,0.1,0.3,0.4,0.3c0,0,0,0,0.1,0
	c0.1,0,0.1,0,0.1,0.1c0,0.1-0.1,0.1-0.2,0.1c-0.3,0-0.8,0-0.9,0c-0.1,0-0.6,0-1.1,0c-0.1,0-0.2,0-0.2-0.1c0,0,0-0.1,0.1-0.1
	c0.1,0,0.2,0,0.2,0c0.5,0,0.7-0.4,0.9-0.9l2.3-6.2c0.1-0.3,0.2-0.4,0.2-0.4c0.1,0,0.1,0,0.2,0.4c0.2,0.4,1.8,4.5,2.4,5.9
	c0.4,0.9,0.7,1.1,0.9,1.1c0.2,0.1,0.3,0.1,0.4,0.1c0.1,0,0.1,0,0.1,0.1c0,0.1,0,0.1-0.2,0.1c-0.1,0-1,0-1.8,0c-0.2,0-0.3,0-0.3-0.1
	c0,0,0-0.1,0.1-0.1c0,0,0.1-0.1,0-0.3l-0.9-2.4c0,0,0-0.1-0.1-0.1H47.1z M49.1,122.8C49.2,122.8,49.2,122.7,49.1,122.8l-0.9-2.7
	c-0.1-0.2-0.1-0.2-0.1,0l-0.9,2.6c0,0,0,0.1,0,0.1H49.1z"/>
<path class="st0" d="M56,121.9c0.5-0.5,1.8-1.7,2.3-2.3c0.6-0.6,0.6-0.7,0.6-0.8c0-0.1,0-0.1-0.2-0.2c-0.1,0-0.1,0-0.1-0.1
	c0,0,0-0.1,0.1-0.1c0.1,0,0.4,0,0.8,0c0.4,0,1,0,1.1,0c0.2,0,0.2,0,0.2,0.1s0,0.1-0.1,0.1c-0.2,0-0.4,0.1-0.6,0.1
	c-0.3,0.1-0.4,0.2-1,0.8c-0.9,0.8-1.9,1.8-2.4,2.2c0.6,0.7,2.5,2.5,3,3c0.8,0.7,1.2,1,1.7,1.1c0.1,0,0.1,0,0.3,0
	c0.1,0,0.2,0,0.2,0.1c0,0-0.1,0.1-0.2,0.1h-0.8c-0.9,0-1.1-0.1-1.6-0.4c-0.5-0.4-2.4-2.3-3.3-3.4v0.9c0,0.9,0,1.7,0,2.1
	c0,0.3,0.1,0.5,0.4,0.5c0.2,0,0.4,0,0.4,0c0.1,0,0.1,0,0.1,0.1c0,0,0,0.1-0.2,0.1c-0.6,0-1.3,0-1.3,0c0,0-0.7,0-1.1,0
	c-0.1,0-0.2,0-0.2-0.1c0,0,0-0.1,0.2-0.1c0.1,0,0.2,0,0.3,0c0.2,0,0.2-0.3,0.3-0.6c0.1-0.4,0.1-1.3,0.1-2.1v-1.8c0-1.5,0-1.8,0-2.1
	c0-0.3-0.1-0.5-0.3-0.5c-0.1,0-0.2,0-0.3,0c-0.1,0-0.1,0-0.1-0.1c0-0.1,0-0.1,0.2-0.1c0.4,0,1,0,1.1,0c0,0,0.7,0,1.1,0
	c0.1,0,0.2,0,0.2,0.1c0,0,0,0.1-0.1,0.1c-0.1,0-0.1,0-0.2,0c-0.3,0-0.4,0.2-0.4,0.6c0,0.3,0,0.6,0,2.1V121.9z"/>
<path class="st0" d="M62.9,119.5c-0.2-0.5-0.2-0.7-0.6-0.8c-0.1,0-0.3,0-0.4,0c-0.1,0-0.1,0-0.1-0.1c0,0,0.1-0.1,0.2-0.1
	c0.6,0,1.1,0,1.3,0c0.1,0,0.6,0,1.1,0c0.1,0,0.2,0,0.2,0.1c0,0.1-0.1,0.1-0.2,0.1c-0.1,0-0.2,0-0.4,0c-0.1,0-0.1,0.1-0.1,0.2
	c0,0.1,0.1,0.5,0.2,0.9c0.2,0.6,1.2,4.1,1.3,4.7l2.2-5.5c0.2-0.4,0.2-0.5,0.3-0.5c0.1,0,0.1,0.1,0.3,0.5l2.1,5.5
	c0.3-1,1.3-3.9,1.6-5.1c0.1-0.3,0.1-0.4,0.1-0.5c0-0.2-0.1-0.3-0.6-0.3c-0.1,0-0.2,0-0.2-0.1s0-0.1,0.2-0.1c0.4,0,0.9,0,1,0
	c0.1,0,0.6,0,1,0c0.1,0,0.1,0,0.1,0.1c0,0.1-0.1,0.1-0.2,0.1c0,0-0.2,0-0.3,0c-0.4,0.1-0.5,0.6-0.7,1.1c-0.5,1.3-1.5,4.4-1.9,5.4
	c-0.3,0.8-0.4,1-0.5,1c-0.1,0-0.2-0.2-0.3-0.6l-2-5.3c-0.4,0.9-1.8,4.5-2.1,5.3c-0.2,0.5-0.3,0.6-0.4,0.6c-0.1,0-0.2-0.2-0.4-0.9
	L62.9,119.5z"/>
<path class="st0" d="M75.2,122.2c0-1.6,1.2-3.9,4.1-3.9c2.3,0,4.1,1.4,4.1,3.7c0,2.2-1.7,4.1-4.1,4.1
	C76.4,126.2,75.2,124,75.2,122.2z M82.3,122.4c0-2.4-1.5-3.7-3.1-3.7c-1.6,0-2.9,1-2.9,3.2c0,2.3,1.3,3.8,3.2,3.8
	C80.3,125.8,82.3,125.4,82.3,122.4z"/>
<path class="st0" d="M86.1,122.2c0-1.6,1.2-3.9,4.1-3.9c2.3,0,4.1,1.4,4.1,3.7c0,2.2-1.7,4.1-4.1,4.1
	C87.2,126.2,86.1,124,86.1,122.2z M93.1,122.4c0-2.4-1.5-3.7-3.1-3.7c-1.6,0-2.9,1-2.9,3.2c0,2.3,1.3,3.8,3.2,3.8
	C91.2,125.8,93.1,125.4,93.1,122.4z"/>
<path class="st0" d="M97.8,121.4c0-1.5,0-1.8,0-2.1c0-0.3-0.1-0.5-0.5-0.6c-0.1,0-0.2,0-0.3,0c-0.1,0-0.1,0-0.1-0.1
	c0-0.1,0.1-0.1,0.2-0.1c0.5,0,1.2,0,1.3,0c0.1,0,0.7,0,1.3,0c1,0,3-0.1,4.2,1.1c0.5,0.5,1,1.3,1,2.5c0,1.2-0.5,2.2-1.1,2.8
	c-0.5,0.5-1.3,1.1-3.1,1.1c-0.4,0-1,0-1.5-0.1c-0.4,0-0.8-0.1-0.8-0.1c0,0-0.2,0-0.4,0c-0.2,0-0.5,0-0.7,0c-0.1,0-0.2,0-0.2-0.1
	c0,0,0-0.1,0.1-0.1c0.1,0,0.2,0,0.3,0c0.2,0,0.3-0.3,0.3-0.5c0.1-0.4,0.1-1.2,0.1-2.2V121.4z M98.7,122.4c0,1.1,0,2,0,2.1
	c0,0.4,0,0.7,0.1,0.8c0.1,0.2,0.5,0.4,1.7,0.4c1,0,1.8-0.3,2.4-0.9c0.5-0.5,0.8-1.4,0.8-2.3c0-1.3-0.6-2.1-1-2.5
	c-1-1-2.1-1.1-3.3-1.1c-0.2,0-0.5,0-0.6,0.1c-0.1,0-0.1,0.1-0.1,0.2c0,0.3,0,1.3,0,2V122.4z"/>
<path class="st0" d="M119.7,120.9C119.8,120.9,119.8,120.9,119.7,120.9l0.1-0.3c0-1.8,0-2.2,0-2.5c0-0.4-0.1-0.6-0.5-0.7
	c-0.1,0-0.3,0-0.4,0c0,0-0.1,0-0.1-0.1c0-0.1,0.1-0.1,0.2-0.1c0.5,0,1.3,0,1.3,0c0.1,0,0.8,0,1.1,0c0.1,0,0.2,0,0.2,0.1
	c0,0,0,0.1-0.1,0.1c-0.1,0-0.2,0-0.3,0c-0.3,0.1-0.4,0.3-0.4,0.7c0,0.4,0,0.7,0,2.5v2.1c0,1.1,0,2,0.1,2.5c0,0.3,0.1,0.6,0.5,0.6
	c0.2,0,0.4,0,0.5,0c0.1,0,0.1,0,0.1,0.1c0,0.1-0.1,0.1-0.2,0.1c-0.6,0-1.4,0-1.4,0c-0.1,0-0.8,0-1.1,0c-0.1,0-0.2,0-0.2-0.1
	c0,0,0-0.1,0.1-0.1c0.1,0,0.2,0,0.4,0c0.2,0,0.3-0.3,0.3-0.6c0.1-0.5,0.1-1.4,0.1-2.5v-1.2c0,0,0-0.1-0.1-0.1h-5c0,0-0.1,0-0.1,0.1
	v1.2c0,1.1,0,2,0.1,2.5c0,0.3,0.1,0.6,0.5,0.6c0.2,0,0.4,0,0.5,0c0.1,0,0.1,0,0.1,0.1c0,0.1-0.1,0.1-0.2,0.1c-0.6,0-1.4,0-1.4,0
	c-0.1,0-0.8,0-1.1,0c-0.1,0-0.2,0-0.2-0.1c0,0,0-0.1,0.1-0.1c0.1,0,0.2,0,0.4,0c0.2,0,0.3-0.3,0.3-0.6c0.1-0.5,0.1-1.4,0.1-2.5v-2.1
	c0-1.8,0-2.2,0-2.5c0-0.4-0.1-0.6-0.5-0.7c-0.1,0-0.3,0-0.4,0c0,0-0.1,0-0.1-0.1c0-0.1,0.1-0.1,0.2-0.1c0.5,0,1.3,0,1.3,0
	c0.1,0,0.8,0,1.1,0c0.1,0,0.2,0,0.2,0.1c0,0,0,0.1-0.1,0.1c-0.1,0-0.2,0-0.3,0c-0.3,0.1-0.4,0.3-0.4,0.7c0,0.4,0,0.7,0,2.5v0.2
	c0,0.1,0,0.1,0.1,0.1H119.7z"/>
<path class="st0" d="M124.4,122.2c0-1.6,1.2-3.9,4.1-3.9c2.3,0,4.1,1.4,4.1,3.7c0,2.2-1.7,4.1-4.1,4.1
	C125.5,126.2,124.4,124,124.4,122.2z M131.4,122.4c0-2.4-1.5-3.7-3.1-3.7c-1.6,0-2.9,1-2.9,3.2c0,2.3,1.3,3.8,3.2,3.8
	C129.5,125.8,131.4,125.4,131.4,122.4z"/>
<path class="st0" d="M143.9,124.7c0,0.3,0.1,0.9,0.6,1c0.2,0,0.4,0.1,0.6,0.1c0,0,0.2,0,0.2,0.1c0,0.1,0,0.1-0.2,0.1
	c-0.2,0-1.5,0-1.9-0.1c-0.3,0-0.4,0-0.4-0.1c0,0,0-0.1,0.1-0.1c0.1,0,0.1-0.2,0.1-0.3l-0.5-5l-2.5,5c-0.2,0.5-0.3,0.6-0.4,0.6
	c-0.1,0-0.1-0.1-0.4-0.5c-0.2-0.3-1.1-2.2-1.2-2.3c-0.1-0.1-1.2-2.4-1.3-2.7l-0.4,4.5c0,0.2,0,0.3,0,0.4c0,0.1,0.1,0.3,0.3,0.4
	c0.1,0,0.2,0,0.3,0c0.1,0,0.1,0,0.1,0.1c0,0.1-0.1,0.1-0.2,0.1c-0.4,0-0.9,0-1,0c-0.1,0-0.6,0-0.9,0c-0.1,0-0.2,0-0.2-0.1
	c0,0,0-0.1,0.2-0.1c0.1,0,0.1,0,0.2,0c0.3,0,0.4-0.3,0.4-0.8l0.8-6.4c0-0.2,0.1-0.3,0.1-0.3c0.1,0,0.1,0,0.2,0.2l3.1,6.1l3-6.1
	c0.1-0.1,0.1-0.2,0.2-0.2s0.1,0.1,0.1,0.3L143.9,124.7z"/>
<path class="st0" d="M148.2,121.4c0-1.5,0-1.8,0-2.1c0-0.3-0.1-0.5-0.4-0.6c-0.1,0-0.2,0-0.3,0c-0.1,0-0.2,0-0.2-0.1
	c0-0.1,0.1-0.1,0.2-0.1c0.2,0,0.6,0,1.2,0c0.1,0,2.1,0,2.4,0c0.2,0,0.4,0,0.5-0.1c0.1,0,0.1,0,0.1,0c0,0,0,0,0,0.1
	c0,0.1-0.1,0.2-0.1,0.5c0,0.2,0,0.4,0,0.6c0,0.1,0,0.2-0.1,0.2s-0.1,0-0.1-0.1c0-0.2,0-0.3-0.1-0.4c-0.1-0.2-0.2-0.3-0.8-0.4
	c-0.2,0-1.3,0-1.3,0c0,0-0.1,0-0.1,0.1v2.7c0,0.1,0,0.1,0.1,0.1c0.1,0,1.3,0,1.6,0c0.3,0,0.4,0,0.5-0.2c0-0.1,0.1-0.1,0.1-0.1
	c0,0,0,0,0,0.1c0,0.1,0,0.3-0.1,0.6c0,0.3,0,0.6,0,0.7c0,0.1,0,0.1-0.1,0.1c-0.1,0-0.1-0.1-0.1-0.2c0-0.1,0-0.2,0-0.3
	c0-0.2-0.1-0.3-0.6-0.4c-0.3,0-1.2,0-1.4,0c-0.1,0-0.1,0-0.1,0.1v0.9c0,0.4,0,1.4,0,1.6c0,0.4,0.1,0.7,0.3,0.8
	c0.2,0.1,0.5,0.1,0.9,0.1c0.2,0,0.6,0,0.9-0.1c0.4-0.1,0.4-0.3,0.5-0.8c0-0.1,0.1-0.2,0.1-0.2c0.1,0,0.1,0.1,0.1,0.2
	c0,0.1-0.1,0.8-0.1,1c0,0.2-0.1,0.3-0.5,0.3c-0.8,0-1.1,0-1.5,0c-0.4,0-0.9,0-1.4,0c-0.3,0-0.5,0-0.8,0c-0.1,0-0.2,0-0.2-0.1
	c0,0,0-0.1,0.1-0.1c0.1,0,0.2,0,0.2,0c0.2,0,0.4-0.2,0.4-0.9c0-0.4,0-0.9,0-1.8V121.4z"/>
<path class="st0" d="M155,125.9c-0.2-0.1-0.2-0.1-0.2-0.4c0-0.5,0-0.9,0-1.1c0-0.1,0-0.2,0.1-0.2s0.1,0,0.1,0.1c0,0.1,0,0.2,0,0.4
	c0.2,0.8,0.8,1.1,1.5,1.1c1,0,1.4-0.7,1.4-1.3c0-0.7-0.3-1.1-1.2-1.8l-0.5-0.4c-1.1-0.9-1.4-1.5-1.4-2.2c0-1.1,0.9-1.8,2.2-1.8
	c0.4,0,0.7,0,0.9,0.1c0.2,0,0.3,0.1,0.4,0.1c0.1,0,0.1,0,0.1,0.1s0,0.5,0,1.1c0,0.2,0,0.2-0.1,0.2c-0.1,0-0.1,0-0.1-0.1
	c0-0.1,0-0.4-0.1-0.6c-0.1-0.1-0.3-0.6-1.3-0.6c-0.7,0-1.2,0.4-1.2,1.1c0,0.6,0.3,0.9,1.3,1.6l0.3,0.2c1.2,0.9,1.5,1.6,1.5,2.4
	c0,0.4-0.2,1.2-0.9,1.7c-0.5,0.3-1,0.4-1.6,0.4C155.9,126.2,155.5,126.1,155,125.9z"/>
<path class="st0" d="M168.1,124.9c-1.1-1-1.4-2.4-1.4-3.5c0-0.8,0.3-2.2,1.3-3.2c0.7-0.7,1.8-1.3,3.6-1.3c0.5,0,1.1,0,1.7,0.1
	c0.4,0.1,0.8,0.1,1.2,0.2c0.1,0,0.1,0.1,0.1,0.1c0,0.1,0,0.2-0.1,0.7c0,0.4,0,1,0,1.2c0,0.2,0,0.2-0.1,0.2c-0.1,0-0.1-0.1-0.1-0.2
	c0-0.5-0.2-0.9-0.5-1.2c-0.4-0.4-1.3-0.7-2.3-0.7c-1.6,0-2.3,0.5-2.7,0.9c-0.9,0.8-1.1,1.9-1.1,3.1c0,2.2,1.7,4.3,4.2,4.3
	c0.9,0,1.6-0.1,2-0.6c0.2-0.3,0.4-0.8,0.4-1c0-0.1,0-0.2,0.1-0.2c0.1,0,0.1,0.1,0.1,0.2c0,0.1-0.1,1.1-0.3,1.5
	c-0.1,0.2-0.1,0.2-0.3,0.3c-0.5,0.2-1.4,0.3-2.1,0.3C170.2,126.2,169.1,125.8,168.1,124.9z"/>
<path class="st0" d="M177.2,122.2c0-1.6,1.2-3.9,4.1-3.9c2.3,0,4.1,1.4,4.1,3.7c0,2.2-1.7,4.1-4.1,4.1
	C178.4,126.2,177.2,124,177.2,122.2z M184.3,122.4c0-2.4-1.5-3.7-3.1-3.7c-1.6,0-2.9,1-2.9,3.2c0,2.3,1.3,3.8,3.2,3.8
	C182.3,125.8,184.3,125.4,184.3,122.4z"/>
<path class="st0" d="M196.8,124.7c0,0.3,0.1,0.9,0.6,1c0.2,0,0.4,0.1,0.6,0.1c0,0,0.2,0,0.2,0.1c0,0.1,0,0.1-0.2,0.1
	c-0.2,0-1.5,0-1.9-0.1c-0.3,0-0.4,0-0.4-0.1c0,0,0-0.1,0.1-0.1c0.1,0,0.1-0.2,0.1-0.3l-0.5-5l-2.5,5c-0.2,0.5-0.3,0.6-0.4,0.6
	c-0.1,0-0.1-0.1-0.4-0.5c-0.2-0.3-1.1-2.2-1.2-2.3c-0.1-0.1-1.2-2.4-1.3-2.7l-0.4,4.5c0,0.2,0,0.3,0,0.4c0,0.1,0.1,0.3,0.3,0.4
	c0.1,0,0.2,0,0.3,0c0.1,0,0.1,0,0.1,0.1c0,0.1-0.1,0.1-0.2,0.1c-0.4,0-0.9,0-1,0c-0.1,0-0.6,0-0.9,0c-0.1,0-0.2,0-0.2-0.1
	c0,0,0-0.1,0.2-0.1c0.1,0,0.1,0,0.2,0c0.3,0,0.4-0.3,0.4-0.8l0.8-6.4c0-0.2,0.1-0.3,0.1-0.3c0.1,0,0.1,0,0.2,0.2l3.1,6.1l3-6.1
	c0.1-0.1,0.1-0.2,0.2-0.2s0.1,0.1,0.1,0.3L196.8,124.7z"/>
<path class="st0" d="M208.8,124.7c0,0.3,0.1,0.9,0.6,1c0.2,0,0.4,0.1,0.6,0.1c0,0,0.2,0,0.2,0.1c0,0.1,0,0.1-0.2,0.1
	c-0.2,0-1.5,0-1.9-0.1c-0.3,0-0.4,0-0.4-0.1c0,0,0-0.1,0.1-0.1c0.1,0,0.1-0.2,0.1-0.3l-0.5-5l-2.5,5c-0.2,0.5-0.3,0.6-0.4,0.6
	c-0.1,0-0.1-0.1-0.4-0.5c-0.2-0.3-1.1-2.2-1.2-2.3c-0.1-0.1-1.2-2.4-1.3-2.7l-0.4,4.5c0,0.2,0,0.3,0,0.4c0,0.1,0.1,0.3,0.3,0.4
	c0.1,0,0.2,0,0.3,0c0.1,0,0.1,0,0.1,0.1c0,0.1-0.1,0.1-0.2,0.1c-0.4,0-0.9,0-1,0c-0.1,0-0.6,0-0.9,0c-0.1,0-0.2,0-0.2-0.1
	c0,0,0-0.1,0.2-0.1c0.1,0,0.1,0,0.2,0c0.3,0,0.4-0.3,0.4-0.8l0.8-6.4c0-0.2,0.1-0.3,0.1-0.3c0.1,0,0.1,0,0.2,0.2l3.1,6.1l3-6.1
	c0.1-0.1,0.1-0.2,0.2-0.2c0.1,0,0.1,0.1,0.1,0.3L208.8,124.7z"/>
<path class="st0" d="M213.5,122.8c0,1.4,0.3,2,0.7,2.4c0.5,0.4,1.1,0.5,1.5,0.5c0.6,0,1.2-0.2,1.6-0.7c0.5-0.5,0.6-1.4,0.6-2.4v-1.2
	c0-1.5,0-1.8,0-2.1c0-0.3-0.1-0.5-0.4-0.6c-0.1,0-0.2,0-0.3,0c-0.1,0-0.1,0-0.1-0.1c0-0.1,0.1-0.1,0.2-0.1c0.5,0,1.1,0,1.1,0
	c0.1,0,0.6,0,0.9,0c0.1,0,0.2,0,0.2,0.1c0,0,0,0.1-0.1,0.1c-0.1,0-0.1,0-0.2,0c-0.3,0-0.4,0.2-0.4,0.6c0,0.3,0,0.6,0,2.1v1
	c0,1.1-0.1,2.3-0.9,3c-0.8,0.6-1.5,0.7-2.1,0.7c-0.3,0-1.4,0-2.2-0.7c-0.5-0.5-0.9-1.2-0.9-2.6v-1.5c0-1.5,0-1.8,0-2.1
	c0-0.3-0.1-0.5-0.4-0.6c-0.1,0-0.2,0-0.3,0c-0.1,0-0.1,0-0.1-0.1c0-0.1,0-0.1,0.2-0.1c0.5,0,1.1,0,1.2,0c0.1,0,0.8,0,1.1,0
	c0.1,0,0.2,0,0.2,0.1s-0.1,0.1-0.1,0.1c-0.1,0-0.2,0-0.3,0c-0.3,0-0.3,0.2-0.4,0.6c0,0.3,0,0.6,0,2.1V122.8z"/>
<path class="st0" d="M222.5,118.8c0-0.4,0-0.5,0.1-0.5c0.1,0,0.3,0.2,0.4,0.3c0.1,0.1,1.7,1.8,3.4,3.5c0.9,0.9,2.1,2.1,2.4,2.4
	l-0.1-4.9c0-0.6-0.1-0.8-0.4-0.9c-0.2,0-0.4,0-0.5,0c-0.1,0-0.1,0-0.1-0.1c0-0.1,0.1-0.1,0.2-0.1c0.5,0,1,0,1.1,0c0.1,0,0.5,0,0.9,0
	c0.1,0,0.2,0,0.2,0.1c0,0,0,0.1-0.1,0.1c-0.1,0-0.2,0-0.3,0c-0.3,0.1-0.4,0.2-0.4,0.9l0,5.9c0,0.6,0,0.6-0.1,0.6
	c-0.1,0-0.2-0.1-0.8-0.6c0,0-1.7-1.6-2.7-2.6c-1.2-1.3-2.4-2.5-2.7-2.8l0.2,4.6c0,0.8,0.1,1.1,0.4,1.2c0.2,0,0.4,0,0.5,0
	c0.1,0,0.1,0,0.1,0.1c0,0.1-0.1,0.1-0.2,0.1c-0.6,0-1.1,0-1.1,0s-0.5,0-1,0c-0.1,0-0.2,0-0.2-0.1c0,0,0-0.1,0.2-0.1
	c0.1,0,0.2,0,0.4,0c0.3-0.1,0.3-0.4,0.3-1.3C222.5,119,222.5,120.8,222.5,118.8z"/>
<path class="st0" d="M233.8,121.4c0-1.5,0-1.8,0-2.1s-0.1-0.5-0.3-0.5c-0.1,0-0.2,0-0.3,0c-0.1,0-0.1,0-0.1-0.1c0-0.1,0-0.1,0.2-0.1
	c0.4,0,1,0,1.1,0c0,0,0.7,0,1.1,0c0.1,0,0.2,0,0.2,0.1c0,0,0,0.1-0.1,0.1c-0.1,0-0.1,0-0.2,0c-0.3,0-0.4,0.2-0.4,0.6
	c0,0.3,0,0.6,0,2.1v1.8c0,0.9,0,1.7,0,2.1c0,0.3,0.1,0.5,0.4,0.5c0.2,0,0.4,0,0.4,0c0.1,0,0.1,0,0.1,0.1c0,0,0,0.1-0.2,0.1
	c-0.6,0-1.3,0-1.3,0c0,0-0.7,0-1.1,0c-0.1,0-0.2,0-0.2-0.1c0,0,0-0.1,0.2-0.1c0.1,0,0.2,0,0.3,0c0.2,0,0.2-0.3,0.3-0.6
	c0.1-0.4,0.1-1.3,0.1-2.1V121.4z"/>
<path class="st0" d="M241.7,123.1c0,0.9,0,1.7,0.1,2.2c0,0.3,0.1,0.4,0.4,0.5c0.1,0,0.4,0,0.5,0s0.1,0,0.1,0.1c0,0.1,0,0.1-0.2,0.1
	c-0.6,0-1.3,0-1.3,0c0,0-0.7,0-1,0c-0.1,0-0.2,0-0.2-0.1c0,0,0-0.1,0.1-0.1s0.2,0,0.3,0c0.2,0,0.3-0.2,0.3-0.6c0-0.4,0-1.3,0-2.1
	V119c-0.4,0-1,0-1.5,0c-0.7,0-0.9,0.1-1.1,0.4c-0.1,0.2-0.2,0.3-0.2,0.4c0,0.1-0.1,0.1-0.1,0.1s-0.1,0-0.1-0.1
	c0-0.1,0.2-0.8,0.2-1.2c0-0.1,0.1-0.2,0.1-0.2c0.1,0,0.3,0.1,0.5,0.1c0.4,0,0.7,0.1,0.7,0.1h3.8c0.3,0,0.7,0,0.8-0.1
	c0.2,0,0.2,0,0.2,0c0,0,0.1,0.1,0.1,0.1c0,0.3,0,1.1,0,1.2c0,0.1,0,0.1-0.1,0.1c-0.1,0-0.1,0-0.1-0.1c0,0,0,0,0-0.2
	c0-0.5-0.2-0.6-1.4-0.6c-0.4,0-0.8,0-1.1,0V123.1z"/>
<path class="st0" d="M249.7,123.5c0-0.6-0.1-0.8-0.3-1.1c-0.1-0.1-1.4-2.3-1.8-2.8c-0.3-0.4-0.4-0.6-0.6-0.7
	c-0.2-0.1-0.3-0.2-0.6-0.2c-0.1,0-0.1,0-0.1-0.1c0,0,0-0.1,0.1-0.1c0.2,0,1.1,0,1.1,0c0.1,0,0.5,0,0.9,0c0.1,0,0.2,0,0.2,0.1
	c0,0,0,0.1-0.1,0.1c-0.2,0-0.2,0.1-0.2,0.2c0,0.1,0.1,0.2,0.2,0.4c0.2,0.3,1.7,2.8,1.9,3.1c0.2-0.4,1.5-2.6,1.7-2.8
	c0.2-0.4,0.3-0.5,0.3-0.6c0-0.2-0.1-0.2-0.3-0.2c-0.1,0-0.1,0-0.1-0.1c0,0,0-0.1,0.1-0.1c0.3,0,0.5,0,0.7,0c0.2,0,0.8,0,1,0
	c0.1,0,0.1,0,0.1,0.1c0,0.1-0.1,0.1-0.1,0.1c-0.2,0-0.4,0-0.6,0.2c-0.2,0.1-0.2,0.2-0.4,0.5c-0.7,0.9-1.8,2.8-2,3.3
	c-0.1,0.4-0.1,0.6-0.1,0.9v0.9c0,0.1,0,0.5,0,0.9c0,0.3,0,0.5,0.4,0.6c0.2,0,0.4,0,0.4,0c0.1,0,0.1,0,0.1,0.1c0,0.1,0,0.1-0.1,0.1
	c-0.6,0-1.3,0-1.3,0c0,0-0.7,0-1.1,0c-0.1,0-0.2,0-0.2-0.1c0,0,0-0.1,0.1-0.1c0.1,0,0.2,0,0.3,0c0.2,0,0.3-0.3,0.3-0.6
	c0-0.4,0-0.8,0-0.9V123.5z"/>
<line class="st1" x1="8.9" y1="81.7" x2="251.6" y2="81.7"/>
<g>
	<path class="st2" d="M8.3,91.4c0-0.2,0.2-0.4,0.4-0.4h6.7c2.8,0,5.1,2.3,5.1,5.1c0,2.2-1.4,3.9-3.5,4.8l3.2,6
		c0.2,0.3,0,0.7-0.4,0.7h-2.5c-0.2,0-0.3-0.1-0.4-0.2l-3.1-6.2h-2.6v6c0,0.2-0.2,0.4-0.4,0.4H8.7c-0.3,0-0.4-0.2-0.4-0.4V91.4z
		 M15.2,98.5c1.2,0,2.3-1.1,2.3-2.4c0-1.2-1.1-2.3-2.3-2.3h-3.8v4.7H15.2z"/>
	<path class="st2" d="M27.6,91.4c0-0.2,0.2-0.4,0.4-0.4h9.6c0.3,0,0.4,0.2,0.4,0.4v1.9c0,0.2-0.2,0.4-0.4,0.4h-7v3.9h5.8
		c0.2,0,0.4,0.2,0.4,0.4v2c0,0.3-0.2,0.4-0.4,0.4h-5.8v4.1h7c0.3,0,0.4,0.2,0.4,0.4v1.9c0,0.2-0.2,0.4-0.4,0.4H28
		c-0.3,0-0.4-0.2-0.4-0.4V91.4z"/>
	<path class="st2" d="M42.9,106.8L50.3,91c0.1-0.1,0.2-0.3,0.4-0.3h0.2c0.2,0,0.3,0.1,0.4,0.3l7.3,15.8c0.1,0.3,0,0.6-0.4,0.6h-2
		c-0.4,0-0.5-0.1-0.7-0.5l-1.2-2.5h-7l-1.2,2.5c-0.1,0.2-0.3,0.5-0.7,0.5h-2C43,107.4,42.8,107.1,42.9,106.8z M53.1,101.8l-2.4-5.2
		h-0.1l-2.3,5.2H53.1z"/>
	<path class="st2" d="M64.4,91.4c0-0.2,0.2-0.4,0.4-0.4H67c0.2,0,0.4,0.2,0.4,0.4v13.2h6c0.3,0,0.4,0.2,0.4,0.4v1.9
		c0,0.2-0.2,0.4-0.4,0.4h-8.6c-0.3,0-0.4-0.2-0.4-0.4V91.4z"/>
	<path class="st2" d="M89.5,91.4c0-0.2,0.2-0.4,0.4-0.4h2.2c0.3,0,0.4,0.2,0.4,0.4v6.2h7.7v-6.2c0-0.2,0.2-0.4,0.4-0.4h2.2
		c0.2,0,0.4,0.2,0.4,0.4V107c0,0.2-0.2,0.4-0.4,0.4h-2.2c-0.3,0-0.4-0.2-0.4-0.4v-6.5h-7.7v6.5c0,0.2-0.2,0.4-0.4,0.4h-2.2
		c-0.2,0-0.4-0.2-0.4-0.4V91.4z"/>
	<path class="st2" d="M118.5,90.7c4.7,0,8.5,3.8,8.5,8.5s-3.8,8.5-8.5,8.5s-8.5-3.7-8.5-8.5S113.8,90.7,118.5,90.7z M118.5,104.6
		c3,0,5.4-2.4,5.4-5.4s-2.4-5.4-5.4-5.4s-5.4,2.5-5.4,5.4S115.6,104.6,118.5,104.6z"/>
	<path class="st2" d="M135.6,91.1c0-0.2,0.2-0.4,0.4-0.4h0.4c0.2,0,0.3,0.1,0.4,0.2l5.2,11.1c0,0,0,0,0.1,0l5.2-11.1
		c0.1-0.1,0.2-0.2,0.4-0.2h0.4c0.3,0,0.4,0.2,0.4,0.4l2.8,15.8c0.1,0.3-0.1,0.5-0.4,0.5h-2.1c-0.2,0-0.4-0.2-0.4-0.4l-1.4-8.9
		c0,0-0.1,0-0.1,0l-4.1,9.3c0,0.1-0.2,0.3-0.4,0.3h-0.4c-0.2,0-0.3-0.1-0.4-0.3l-4.2-9.3c0,0,0,0-0.1,0l-1.4,8.9
		c0,0.2-0.2,0.4-0.4,0.4h-2.1c-0.3,0-0.5-0.2-0.4-0.5L135.6,91.1z"/>
	<path class="st2" d="M158.1,91.4c0-0.2,0.2-0.4,0.4-0.4h9.6c0.3,0,0.4,0.2,0.4,0.4v1.9c0,0.2-0.2,0.4-0.4,0.4h-7v3.9h5.8
		c0.2,0,0.4,0.2,0.4,0.4v2c0,0.3-0.2,0.4-0.4,0.4h-5.8v4.1h7c0.3,0,0.4,0.2,0.4,0.4v1.9c0,0.2-0.2,0.4-0.4,0.4h-9.6
		c-0.3,0-0.4-0.2-0.4-0.4V91.4z"/>
	<path class="st2" d="M178.1,93.8h-3.6c-0.3,0-0.4-0.2-0.4-0.4v-1.9c0-0.2,0.2-0.4,0.4-0.4h10.3c0.3,0,0.4,0.2,0.4,0.4v1.9
		c0,0.2-0.2,0.4-0.4,0.4h-3.6V107c0,0.2-0.2,0.4-0.4,0.4h-2.2c-0.2,0-0.4-0.2-0.4-0.4V93.8z"/>
	<path class="st2" d="M198.6,90.7c4.7,0,8.5,3.8,8.5,8.5s-3.8,8.5-8.5,8.5s-8.5-3.7-8.5-8.5S193.9,90.7,198.6,90.7z M198.6,104.6
		c3,0,5.4-2.4,5.4-5.4s-2.4-5.4-5.4-5.4s-5.4,2.5-5.4,5.4S195.7,104.6,198.6,104.6z"/>
	<path class="st2" d="M212.4,91.5c-0.1-0.3,0.1-0.6,0.4-0.6h2.2c0.2,0,0.4,0.2,0.4,0.3l2.4,9.4h0.1l3.7-9.7c0-0.1,0.2-0.3,0.4-0.3
		h0.4c0.2,0,0.4,0.1,0.4,0.3l3.8,9.7h0.1l2.4-9.4c0-0.2,0.2-0.3,0.4-0.3h2.2c0.3,0,0.5,0.2,0.4,0.6l-4.4,15.8c0,0.2-0.2,0.3-0.4,0.3
		H227c-0.2,0-0.4-0.1-0.4-0.3l-4.2-10.7h-0.1l-4.2,10.7c-0.1,0.1-0.2,0.3-0.4,0.3h-0.4c-0.2,0-0.4-0.1-0.4-0.3L212.4,91.5z"/>
	<path class="st2" d="M238.5,91.1c0-0.2,0.2-0.4,0.4-0.4h0.4c0.2,0,0.3,0,0.4,0.2l9.6,10.2h0v-9.7c0-0.2,0.2-0.4,0.4-0.4h2.2
		c0.2,0,0.4,0.2,0.4,0.4v15.8c0,0.2-0.2,0.4-0.4,0.4h-0.3c-0.2,0-0.3,0-0.4-0.2l-9.7-10.6h0V107c0,0.2-0.2,0.4-0.4,0.4H239
		c-0.2,0-0.4-0.2-0.4-0.4V91.1z"/>
</g>
<g>
	<path class="st3" d="M38.1,25.7c0,5.1-0.7,10.3-5.3,13.5c0.8,0.4,1.5,0.9,2.2,1.5c4.2-2.7,5.3-7.1,5.3-13.1
		c0-7.1-1.7-11.6-5.1-14.1C37.1,16.3,38.1,20.4,38.1,25.7z"/>
	<path class="st3" d="M20.8,21.9c1.1,0,2.1,0,2.9,0c0,0-0.1-0.1-0.1-0.1c-0.9-0.9-2.7-1-5-1c0,1.4,0,11.5,0,12.9c0.6,0,1.5,0,2.2,0
		V21.9z"/>
	<path class="st3" d="M21.6,46.2c0,0-1.9,0-2.9,0c0,1.6,0,23.5,0,23.5H9.4v1h11.5V47.2h2.6C22.9,46.4,22.2,46.2,21.6,46.2z"/>
	<path class="st3" d="M37,66.1c-0.4-2.5-0.6-7.7-0.8-12.3c0,0-0.3-6.6-0.3-6.7c-0.2-3.6-2-6.1-5-6.9l-2.1-0.7l1.9-1
		c4-2.3,5.6-5.9,5.6-12.8c0-10.9-4-15.6-13.2-15.6c0,0-14.3,0-15.9,0c0,1.7,0,56.2,0,57.9c1.4,0,8.4,0,9.7,0c0-1.6,0-23.5,0-23.5
		l4.7,0c3.6,0.3,4.4,3.9,4.7,7.1l0.2,7.3l0.1,6.6c0.1,1,0.3,1.8,0.5,2.6c1.2,0,9,0,10.7,0C37.5,67.5,37.2,66.9,37,66.1z M21.7,35.4
		h-4.8V19.1l0.8,0c3.2-0.1,5.6,0,7.1,1.5c1.2,1.2,1.8,3.3,1.8,6.6C26.7,34,24,35.4,21.7,35.4z"/>
	<path class="st3" d="M40.9,67.9c-0.7-3.8-0.7-14.1-1-18.8c-0.2-3.2-1.5-5.5-3.6-6.8c0.9,1.3,1.4,3,1.5,4.8l0.3,6.7
		c0.2,4.5,0.3,9.7,0.7,11.9c0.3,0.8,0.5,1.3,0.9,1.7l0.2,0.3v2H29.2c0.1,0.4,0.2,0.7,0.3,1H42v-0.8C41.5,69.4,41.1,68.7,40.9,67.9z"
		/>
</g>
<path class="st4" d="M17.8,19.1l-0.8,0v16.3h4.8c2.3,0,5-1.4,5-8.3c0-3.4-0.6-5.4-1.8-6.6C23.4,19,21,19,17.8,19.1z M23.7,21.8
	c0.9,0.8,1.3,2.6,1.3,5.4c0,4.3-1.1,6.5-3.2,6.5c0,0-2,0-3,0c0-1.4,0-11.5,0-12.9C21,20.8,22.8,20.9,23.7,21.8z M6.3,8.3H5.5v61.4
	h13.2c0,0,0-21.9,0-23.5c1,0,2.9,0,2.9,0c1.3,0.1,2.6,0.9,3,5.5l0.2,7.1l0.1,6.7c0.1,1.4,0.4,2.6,0.7,3.6l0.2,0.6h14.1v-2l-0.2-0.3
	c-0.4-0.4-0.6-0.9-0.9-1.7c-0.4-2.3-0.6-7.4-0.7-11.9l-0.3-6.7c-0.2-3.7-2-6.5-4.9-7.9c4.6-3.3,5.3-8.4,5.3-13.5
	c0-11.8-4.8-17.3-15-17.3H6.3z M23.1,10.1c9.3,0,13.2,4.7,13.2,15.6c0,7-1.6,10.6-5.6,12.8l-1.9,1l2.1,0.7c3,0.8,4.9,3.3,5,6.9
	c0,0,0.3,6.7,0.3,6.7c0.2,4.6,0.3,9.8,0.8,12.3c0.3,0.8,0.5,1.4,0.9,1.8c-1.7,0-9.5,0-10.7,0c-0.2-0.8-0.4-1.6-0.5-2.6l-0.1-6.6
	l-0.2-7.3c-0.3-3.1-1.1-6.7-4.7-7.1l-4.7,0c0,0,0,21.9,0,23.5c-1.4,0-8.4,0-9.7,0c0-1.7,0-56.2,0-57.9C8.8,10.1,23.1,10.1,23.1,10.1
	z"/>
<g>
	<polygon class="st3" points="73.4,58.8 73.4,69.7 48.5,69.7 48.5,70.7 75.6,70.7 75.6,58.8 	"/>
	<path class="st3" d="M74.3,34h-2.2v10.9c0,0-12.8,0-14.4,0c0,1.4,0,9.7,0,11.1c0.3,0,1.1,0,2.2,0V45.9h14.4V34z"/>
	<path class="st3" d="M71.7,57.8c-1.6,0-15.6,0-15.6,0V43.2c0,0,12.8,0,14.4,0c0-1.4,0-8.8,0-10.2c-1.5,0-14.4,0-14.4,0V20.3
		c0,0,13.3,0,14.8,0c0-1.4,0-8.8,0-10.2c-1.6,0-23,0-24.6,0c0,1.7,0,56.2,0,57.9c1.6,0,23.8,0,25.3,0C71.7,66.6,71.7,59.2,71.7,57.8
		z"/>
	<path class="st3" d="M74.8,11.1h-2.2V22c0,0-13.3,0-14.8,0c0,1.3,0,7.9,0,9.2c0.3,0,1.1,0,2.2,0v-8.2h14.8V11.1z"/>
</g>
<path class="st4" d="M71.8,8.3H44.6v61.4h28.8V56c0,0-14,0-15.6,0c0-1.4,0-9.7,0-11.1c1.5,0,14.4,0,14.4,0V31.2c0,0-12.8,0-14.4,0
	c0-1.3,0-7.9,0-9.2c1.5,0,14.8,0,14.8,0V8.3H71.8z M70.9,10.1c0,1.4,0,8.8,0,10.2c-1.5,0-14.8,0-14.8,0V33c0,0,12.8,0,14.4,0
	c0,1.4,0,8.8,0,10.2c-1.5,0-14.4,0-14.4,0v14.6c0,0,14,0,15.6,0c0,1.4,0,8.8,0,10.2c-1.6,0-23.8,0-25.3,0c0-1.7,0-56.2,0-57.9
	C47.9,10.1,69.3,10.1,70.9,10.1z"/>
<g>
	<path class="st3" d="M112.2,11.1v41.2c0,12.4-5.5,18.8-16.3,18.8c-1.4,0-2.9-0.1-4.4-0.4c2.1,1,4.6,1.5,7.4,1.5
		c11.7,0,15.5-7.8,15.5-17.9V11.1H112.2z"/>
	<path class="st3" d="M110.4,52.4c0,0,0-40.6,0-42.3c-1.4,0-8.4,0-9.7,0c0,1.7,0,43.7,0,43.7c0,3-1.3,6.6-4.8,6.6
		c-3.2,0-4.9-2.1-4.9-6.2c0,0,0-42.4,0-44.1c-1.4,0-8.4,0-9.7,0c0,1.7,0,42.3,0,42.3c0,11.3,4.9,17,14.5,17
		C105.7,69.4,110.4,63.8,110.4,52.4z"/>
	<path class="st3" d="M92.8,11.1v43.1c0,2.8,0.7,4.1,2.4,4.4C95,57.9,95,57,95,56.1v-45H92.8z"/>
</g>
<path class="st4" d="M111.3,8.3H99v45.5c0,0.8-0.1,4.9-3,4.9c-2.2,0-3.1-1.3-3.1-4.5V8.3H79.6v44c0,15.5,8.8,18.8,16.3,18.8
	c10.8,0,16.3-6.3,16.3-18.8v-44H111.3z M110.4,10.1c0,1.7,0,42.3,0,42.3c0,11.4-4.8,17-14.6,17c-9.6,0-14.5-5.7-14.5-17
	c0,0,0-40.6,0-42.3c1.4,0,8.4,0,9.7,0c0,1.7,0,44.1,0,44.1c0,4.1,1.6,6.2,4.9,6.2c3.5,0,4.8-3.5,4.8-6.6c0,0,0-42,0-43.7
	C102.1,10.1,109.1,10.1,110.4,10.1z"/>
<g>
	<path class="st3" d="M149.2,10.1c-1.3,0-7.7,0-9.1,0c0.1,1.7,1.1,32.4,1.1,32.4l-1.9,0.3c0,0-8.4-31.4-8.7-32.7
		c-1.1,0-8.9,0-10.3,0c0,1.7,0,56.2,0,57.9c1.3,0,7.7,0,9.1,0c-0.1-1.7-1-32.7-1-32.7l1.4-1.7c0,0,8.9,33.1,9.2,34.4
		c1.1,0,8.8,0,10.2,0C149.2,66.3,149.2,11.8,149.2,10.1z"/>
	<path class="st3" d="M139.2,35.7c-0.1-1.9-0.1-4.3-0.2-6.9l-4.7-17.7h-1.6C134.1,16.7,137.5,29.3,139.2,35.7z"/>
	<path class="st3" d="M130.3,42.4c0.3,8.6,0.9,27.3,0.9,27.3h-8.8v1h10.9l-0.6-19.5C131.8,47.9,131,44.8,130.3,42.4z"/>
	<polygon class="st3" points="150.9,11.1 150.9,69.7 141.1,69.7 141.4,70.7 153.1,70.7 153.1,11.1 	"/>
</g>
<path class="st4" d="M150.1,8.3h-11.8c0,0,0.6,18.8,0.9,27.4c-2.3-8.5-7.3-27.4-7.3-27.4h-13.4v61.4h12.7c0,0-0.6-18.7-0.9-27.3
	c2.3,8.6,7.3,27.3,7.3,27.3h13.3V8.3H150.1z M149.2,10.1c0,1.7,0,56.2,0,57.9c-1.4,0-9.1,0-10.2,0c-0.3-1.2-9.2-34.4-9.2-34.4
	l-1.4,1.7c0,0,1,30.9,1,32.7c-1.4,0-7.8,0-9.1,0c0-1.7,0-56.2,0-57.9c1.4,0,9.2,0,10.3,0c0.3,1.2,8.7,32.7,8.7,32.7l1.9-0.3
	c0,0-1-30.7-1.1-32.4C141.5,10.1,147.9,10.1,149.2,10.1z"/>
<g>
	<path class="st3" d="M169.4,10.1c-1.4,0-8.4,0-9.7,0c0,1.7,0,56.2,0,57.9c1.4,0,8.4,0,9.7,0C169.4,66.3,169.4,11.8,169.4,10.1z"/>
	<polygon class="st3" points="171.2,11.1 171.2,69.7 161.8,69.7 161.8,70.7 173.3,70.7 173.3,11.1 	"/>
</g>
<path class="st4" d="M170.3,8.3h-12.4v61.4h13.2V8.3H170.3z M169.4,10.1c0,1.7,0,56.2,0,57.9c-1.4,0-8.4,0-9.7,0
	c0-1.7,0-56.2,0-57.9C161.1,10.1,168.1,10.1,169.4,10.1z"/>
<g>
	<path class="st3" d="M209.1,49.8V25.6c0-11.1-5-16.9-14.6-16.9c-9.5,0-14.8,6-14.8,16.9v24.2c0,13.9,4.3,19.6,14.8,19.6
		C204.9,69.4,209.1,63.7,209.1,49.8z M189.5,51V26.5c0-2.4,0-8.9,5-8.9c4.9,0,4.9,6,4.9,8.9V51c0,2.8,0,9.4-4.9,9.4
		C191.2,60.4,189.5,57.2,189.5,51z"/>
	<path class="st3" d="M207.4,12.8c2.2,3.1,3.4,7.4,3.4,12.8v24.2c0,14.9-4.9,21.3-16.3,21.3c-1.7,0-3.3-0.1-4.7-0.4
		c2.1,1,4.6,1.5,7.7,1.5c11.6,0,15.5-7,15.5-20.4V27.5C213,20.7,211.1,15.7,207.4,12.8z"/>
	<path class="st3" d="M193.4,52.9V28.5c0-3.4,0.4-7.3,3.3-7.9c-0.5-0.7-1.2-1.1-2.2-1.1c-2.2,0-3.2,2.2-3.2,7.2V51
		c0,4.8,1,7.3,2.9,7.6C193.5,56.9,193.4,54.7,193.4,52.9z"/>
</g>
<path class="st4" d="M189.5,26.5V51c0,6.2,1.7,9.4,5,9.4c4.9,0,4.9-6.6,4.9-9.4V26.5c0-2.9,0-8.9-4.9-8.9
	C189.5,17.6,189.5,24.1,189.5,26.5z M191.2,51V26.5c0-4.9,1-7.2,3.2-7.2c2.6,0,3.2,2.7,3.2,7.2V51c0,5.3-1,7.6-3.1,7.6
	C192.3,58.7,191.2,56.1,191.2,51z M178,25.6v24.2c0,14.7,5.1,21.3,16.5,21.3c11.5,0,16.3-6.4,16.3-21.3V25.6
	c0-12-5.8-18.7-16.3-18.7C184,6.9,178,13.7,178,25.6z M179.7,49.8V25.6c0-10.9,5.3-16.9,14.8-16.9c9.5,0,14.6,5.9,14.6,16.9v24.2
	c0,13.9-4.2,19.6-14.6,19.6C184,69.4,179.7,63.7,179.7,49.8z"/>
<g>
	<path class="st3" d="M247.7,10.1c-1.3,0-7.7,0-9.1,0c0.1,1.7,1.1,32.4,1.1,32.4l-1.9,0.3c0,0-8.4-31.4-8.7-32.7
		c-1.1,0-8.9,0-10.3,0c0,1.7,0,56.2,0,57.9c1.3,0,7.7,0,9.1,0c-0.1-1.7-1-32.6-1-32.6l1.4-1.7c0,0,8.9,33.1,9.2,34.4
		c1.1,0,8.8,0,10.2,0C247.7,66.3,247.7,11.8,247.7,10.1z"/>
	<path class="st3" d="M237.7,35.7c-0.1-1.9-0.1-4.3-0.2-6.9l-4.7-17.7h-1.6C232.6,16.7,236,29.3,237.7,35.7z"/>
	<path class="st3" d="M228.9,42.4c0.3,8.6,0.9,27.3,0.9,27.3H221v1h10.9l-0.6-19.5C230.4,47.9,229.5,44.8,228.9,42.4z"/>
	<polygon class="st3" points="249.5,11.1 249.5,69.7 239.6,69.7 239.9,70.7 251.6,70.7 251.6,11.1 	"/>
</g>
<path class="st4" d="M248.6,8.3h-11.8c0,0,0.6,18.8,0.9,27.4c-2.3-8.5-7.3-27.4-7.3-27.4h-13.3v61.4h12.7c0,0-0.6-18.7-0.9-27.3
	c2.3,8.6,7.3,27.3,7.3,27.3h13.3V8.3H248.6z M247.7,10.1c0,1.7,0,56.2,0,57.9c-1.4,0-9.1,0-10.2,0c-0.3-1.2-9.2-34.4-9.2-34.4
	l-1.4,1.7c0,0,1,30.9,1,32.6c-1.4,0-7.8,0-9.1,0c0-1.7,0-56.2,0-57.9c1.4,0,9.2,0,10.3,0c0.3,1.2,8.7,32.7,8.7,32.7l1.9-0.3
	c0,0-1-30.7-1.1-32.4C240,10.1,246.4,10.1,247.7,10.1z"/>
</svg>
