<?xml version="1.0" encoding="utf-8"?>
<!-- Generator: Adobe Illustrator 22.0.1, SVG Export Plug-In . SVG Version: 6.00 Build 0)  -->
<svg version="1.1" id="Layer_1" xmlns="http://www.w3.org/2000/svg" xmlns:xlink="http://www.w3.org/1999/xlink" x="0px" y="0px"
	 viewBox="0 0 259.7 110.5" style="enable-background:new 0 0 259.7 110.5;" xml:space="preserve">
<metadata><?xpacket begin="﻿" id="W5M0MpCehiHzreSzNTczkc9d"?>
<x:xmpmeta xmlns:x="adobe:ns:meta/" x:xmptk="Adobe XMP Core 5.6-c143 79.161210, 2017/08/11-10:28:36        ">
   <rdf:RDF xmlns:rdf="http://www.w3.org/1999/02/22-rdf-syntax-ns#">
      <rdf:Description rdf:about=""/>
   </rdf:RDF>
</x:xmpmeta>
                                                                                                    
                                                                                                    
                                                                                                    
                                                                                                    
                                                                                                    
                                                                                                    
                                                                                                    
                                                                                                    
                                                                                                    
                                                                                                    
                                                                                                    
                                                                                                    
                                                                                                    
                                                                                                    
                                                                                                    
                                                                                                    
                                                                                                    
                                                                                                    
                                                                                                    
                                                                                                    
                           
<?xpacket end="w"?></metadata>
<style type="text/css">
	.st0{fill:none;stroke:#1E3564;stroke-width:2.2694;stroke-linecap:round;stroke-miterlimit:10;}
	.st1{fill:#D9992D;}
	.st2{fill:#1E3565;}
	.st3{fill:#FFFFFF;}
</style>
<line class="st0" x1="9.8" y1="79.4" x2="252.6" y2="79.4"/>
<g>
	<path class="st1" d="M9.2,89.2c0-0.2,0.2-0.4,0.4-0.4h6.7c2.8,0,5.1,2.3,5.1,5.1c0,2.2-1.4,3.9-3.5,4.8l3.2,6
		c0.2,0.3,0,0.7-0.4,0.7h-2.5c-0.2,0-0.3-0.1-0.4-0.2l-3.1-6.2h-2.6v6c0,0.2-0.2,0.4-0.4,0.4H9.7c-0.3,0-0.4-0.2-0.4-0.4V89.2z
		 M16.1,96.2c1.2,0,2.3-1.1,2.3-2.4c0-1.2-1.1-2.3-2.3-2.3h-3.8v4.7H16.1z"/>
	<path class="st1" d="M28.5,89.2c0-0.2,0.2-0.4,0.4-0.4h9.6c0.3,0,0.4,0.2,0.4,0.4v1.9c0,0.2-0.2,0.4-0.4,0.4h-7v3.9h5.8
		c0.2,0,0.4,0.2,0.4,0.4v2c0,0.3-0.2,0.4-0.4,0.4h-5.8v4.1h7c0.3,0,0.4,0.2,0.4,0.4v1.9c0,0.2-0.2,0.4-0.4,0.4H29
		c-0.3,0-0.4-0.2-0.4-0.4V89.2z"/>
	<path class="st1" d="M43.9,104.6l7.3-15.8c0.1-0.1,0.2-0.3,0.4-0.3h0.2c0.2,0,0.3,0.1,0.4,0.3l7.3,15.8c0.1,0.3,0,0.6-0.4,0.6h-2
		c-0.4,0-0.5-0.1-0.7-0.5l-1.2-2.5h-7l-1.2,2.5c-0.1,0.2-0.3,0.5-0.7,0.5h-2C43.9,105.2,43.8,104.9,43.9,104.6z M54.1,99.6l-2.4-5.2
		h-0.1l-2.3,5.2H54.1z"/>
	<path class="st1" d="M65.3,89.2c0-0.2,0.2-0.4,0.4-0.4H68c0.2,0,0.4,0.2,0.4,0.4v13.2h6c0.3,0,0.4,0.2,0.4,0.4v1.9
		c0,0.2-0.2,0.4-0.4,0.4h-8.6c-0.3,0-0.4-0.2-0.4-0.4V89.2z"/>
	<path class="st1" d="M90.4,89.2c0-0.2,0.2-0.4,0.4-0.4h2.2c0.3,0,0.4,0.2,0.4,0.4v6.2h7.7v-6.2c0-0.2,0.2-0.4,0.4-0.4h2.2
		c0.2,0,0.4,0.2,0.4,0.4v15.6c0,0.2-0.2,0.4-0.4,0.4h-2.2c-0.3,0-0.4-0.2-0.4-0.4v-6.5h-7.7v6.5c0,0.2-0.2,0.4-0.4,0.4h-2.2
		c-0.2,0-0.4-0.2-0.4-0.4V89.2z"/>
	<path class="st1" d="M119.5,88.5c4.7,0,8.5,3.8,8.5,8.5s-3.8,8.5-8.5,8.5s-8.5-3.7-8.5-8.5S114.8,88.5,119.5,88.5z M119.5,102.4
		c3,0,5.4-2.4,5.4-5.4s-2.4-5.4-5.4-5.4s-5.4,2.5-5.4,5.4S116.5,102.4,119.5,102.4z"/>
	<path class="st1" d="M136.5,88.8c0-0.2,0.2-0.4,0.4-0.4h0.4c0.2,0,0.3,0.1,0.4,0.2l5.2,11.1c0,0,0,0,0.1,0l5.2-11.1
		c0.1-0.1,0.2-0.2,0.4-0.2h0.4c0.3,0,0.4,0.2,0.4,0.4l2.8,15.8c0.1,0.3-0.1,0.5-0.4,0.5h-2.1c-0.2,0-0.4-0.2-0.4-0.4l-1.4-8.9
		c0,0-0.1,0-0.1,0l-4.1,9.3c0,0.1-0.2,0.3-0.4,0.3h-0.4c-0.2,0-0.3-0.1-0.4-0.3l-4.2-9.3c0,0,0,0-0.1,0l-1.4,8.9
		c0,0.2-0.2,0.4-0.4,0.4h-2.1c-0.3,0-0.5-0.2-0.4-0.5L136.5,88.8z"/>
	<path class="st1" d="M159,89.2c0-0.2,0.2-0.4,0.4-0.4h9.6c0.3,0,0.4,0.2,0.4,0.4v1.9c0,0.2-0.2,0.4-0.4,0.4h-7v3.9h5.8
		c0.2,0,0.4,0.2,0.4,0.4v2c0,0.3-0.2,0.4-0.4,0.4h-5.8v4.1h7c0.3,0,0.4,0.2,0.4,0.4v1.9c0,0.2-0.2,0.4-0.4,0.4h-9.6
		c-0.3,0-0.4-0.2-0.4-0.4V89.2z"/>
	<path class="st1" d="M179,91.6h-3.6c-0.3,0-0.4-0.2-0.4-0.4v-1.9c0-0.2,0.2-0.4,0.4-0.4h10.3c0.3,0,0.4,0.2,0.4,0.4v1.9
		c0,0.2-0.2,0.4-0.4,0.4h-3.6v13.2c0,0.2-0.2,0.4-0.4,0.4h-2.2c-0.2,0-0.4-0.2-0.4-0.4V91.6z"/>
	<path class="st1" d="M199.6,88.5c4.7,0,8.5,3.8,8.5,8.5s-3.8,8.5-8.5,8.5s-8.5-3.7-8.5-8.5S194.9,88.5,199.6,88.5z M199.6,102.4
		c3,0,5.4-2.4,5.4-5.4s-2.4-5.4-5.4-5.4s-5.4,2.5-5.4,5.4S196.6,102.4,199.6,102.4z"/>
	<path class="st1" d="M213.4,89.3c-0.1-0.3,0.1-0.6,0.4-0.6h2.2c0.2,0,0.4,0.2,0.4,0.3l2.4,9.4h0.1l3.7-9.7c0-0.1,0.2-0.3,0.4-0.3
		h0.4c0.2,0,0.4,0.1,0.4,0.3l3.8,9.7h0.1l2.4-9.4c0-0.2,0.2-0.3,0.4-0.3h2.2c0.3,0,0.5,0.2,0.4,0.6l-4.4,15.8c0,0.2-0.2,0.3-0.4,0.3
		h-0.4c-0.2,0-0.4-0.1-0.4-0.3l-4.2-10.7h-0.1l-4.2,10.7c-0.1,0.1-0.2,0.3-0.4,0.3h-0.4c-0.2,0-0.4-0.1-0.4-0.3L213.4,89.3z"/>
	<path class="st1" d="M239.5,88.9c0-0.2,0.2-0.4,0.4-0.4h0.4c0.2,0,0.3,0,0.4,0.2l9.6,10.2h0v-9.7c0-0.2,0.2-0.4,0.4-0.4h2.2
		c0.2,0,0.4,0.2,0.4,0.4V105c0,0.2-0.2,0.4-0.4,0.4h-0.3c-0.2,0-0.3,0-0.4-0.2l-9.7-10.6h0v10.1c0,0.2-0.2,0.4-0.4,0.4h-2.1
		c-0.2,0-0.4-0.2-0.4-0.4V88.9z"/>
</g>
<g>
	<path class="st2" d="M39,23.4c0,5.1-0.7,10.3-5.3,13.5c0.8,0.4,1.5,0.9,2.2,1.5c4.2-2.7,5.3-7.1,5.3-13.1c0-7.1-1.7-11.6-5.1-14.1
		C38.1,14.1,39,18.1,39,23.4z"/>
	<path class="st2" d="M21.8,19.6c1.1,0,2.1,0,2.9,0c0,0-0.1-0.1-0.1-0.1c-0.9-0.9-2.7-1-5-1c0,1.4,0,11.5,0,12.9c0.6,0,1.5,0,2.2,0
		V19.6z"/>
	<path class="st2" d="M22.6,43.9c0,0-1.9,0-2.9,0c0,1.6,0,23.5,0,23.5h-9.3v1h11.5V45h2.6C23.9,44.2,23.2,44,22.6,43.9z"/>
	<path class="st2" d="M37.9,63.9c-0.4-2.5-0.6-7.7-0.8-12.3c0,0-0.3-6.6-0.3-6.7c-0.2-3.6-2-6.1-5-6.9l-2.1-0.7l1.9-1
		c4-2.3,5.6-5.9,5.6-12.8c0-10.9-4-15.6-13.2-15.6c0,0-14.3,0-15.9,0c0,1.7,0,56.2,0,57.9c1.4,0,8.4,0,9.7,0c0-1.6,0-23.5,0-23.5
		l4.7,0c3.6,0.3,4.4,3.9,4.7,7.1l0.2,7.3l0.1,6.6c0.1,1,0.3,1.8,0.5,2.6c1.2,0,9,0,10.7,0C38.5,65.2,38.2,64.7,37.9,63.9z
		 M22.7,33.2h-4.8V16.9l0.8,0c3.2-0.1,5.6,0,7.1,1.5c1.2,1.2,1.8,3.3,1.8,6.6C27.7,31.8,25,33.2,22.7,33.2z"/>
	<path class="st2" d="M41.8,65.6c-0.7-3.8-0.7-14.1-1-18.8c-0.2-3.2-1.5-5.5-3.6-6.8c0.9,1.3,1.4,3,1.5,4.8l0.3,6.7
		c0.2,4.5,0.3,9.7,0.7,11.9c0.3,0.8,0.5,1.3,0.9,1.7l0.2,0.3v2H30.1c0.1,0.4,0.2,0.7,0.3,1h12.5v-0.8C42.4,67.2,42.1,66.4,41.8,65.6
		z"/>
</g>
<path class="st3" d="M18.7,16.8l-0.8,0v16.3h4.8c2.3,0,5-1.4,5-8.3c0-3.4-0.6-5.4-1.8-6.6C24.3,16.8,21.9,16.8,18.7,16.8z
	 M24.7,19.6c0.9,0.8,1.3,2.6,1.3,5.4c0,4.3-1.1,6.5-3.2,6.5c0,0-2,0-3,0c0-1.4,0-11.5,0-12.9C22,18.5,23.7,18.6,24.7,19.6z M7.3,6.1
	H6.4v61.4h13.2c0,0,0-21.9,0-23.5c1,0,2.9,0,2.9,0c1.3,0.1,2.6,0.9,3,5.5l0.2,7.1l0.1,6.7c0.1,1.4,0.4,2.6,0.7,3.6l0.2,0.6h14.1v-2
	l-0.2-0.3c-0.4-0.4-0.6-0.9-0.9-1.7c-0.4-2.3-0.6-7.4-0.7-11.9l-0.3-6.7c-0.2-3.7-2-6.5-4.9-7.9c4.6-3.3,5.3-8.4,5.3-13.5
	c0-11.8-4.8-17.3-15-17.3H7.3z M24.1,7.9c9.3,0,13.2,4.7,13.2,15.6c0,7-1.6,10.6-5.6,12.8l-1.9,1l2.1,0.7c3,0.8,4.9,3.3,5,6.9
	c0,0,0.3,6.7,0.3,6.7c0.2,4.6,0.3,9.8,0.8,12.3c0.3,0.8,0.5,1.4,0.9,1.8c-1.7,0-9.5,0-10.7,0c-0.2-0.8-0.4-1.6-0.5-2.6l-0.1-6.6
	l-0.2-7.3c-0.3-3.1-1.1-6.7-4.7-7.1l-4.7,0c0,0,0,21.9,0,23.5c-1.4,0-8.4,0-9.7,0c0-1.7,0-56.2,0-57.9C9.7,7.9,24.1,7.9,24.1,7.9z"
	/>
<g>
	<polygon class="st2" points="74.4,56.6 74.4,67.5 49.5,67.5 49.5,68.5 76.5,68.5 76.5,56.6 	"/>
	<path class="st2" d="M75.3,31.8h-2.2v10.9c0,0-12.8,0-14.4,0c0,1.4,0,9.7,0,11.1c0.3,0,1.1,0,2.2,0V43.7h14.4V31.8z"/>
	<path class="st2" d="M72.6,55.5c-1.6,0-15.6,0-15.6,0V40.9c0,0,12.8,0,14.4,0c0-1.4,0-8.8,0-10.2c-1.5,0-14.4,0-14.4,0V18
		c0,0,13.3,0,14.8,0c0-1.4,0-8.8,0-10.2c-1.6,0-23,0-24.6,0c0,1.7,0,56.2,0,57.9c1.6,0,23.8,0,25.3,0C72.6,64.3,72.6,56.9,72.6,55.5
		z"/>
	<path class="st2" d="M75.8,8.9h-2.2v10.9c0,0-13.3,0-14.8,0c0,1.3,0,7.9,0,9.2c0.3,0,1.1,0,2.2,0v-8.2h14.8V8.9z"/>
</g>
<path class="st3" d="M72.7,6.1H45.6v61.4h28.8V53.8c0,0-14,0-15.6,0c0-1.4,0-9.7,0-11.1c1.5,0,14.4,0,14.4,0V29c0,0-12.8,0-14.4,0
	c0-1.3,0-7.9,0-9.2c1.5,0,14.8,0,14.8,0V6.1H72.7z M71.9,7.9c0,1.4,0,8.8,0,10.2C70.3,18,57,18,57,18v12.7c0,0,12.8,0,14.4,0
	c0,1.4,0,8.8,0,10.2c-1.5,0-14.4,0-14.4,0v14.6c0,0,14,0,15.6,0c0,1.4,0,8.8,0,10.2c-1.6,0-23.8,0-25.3,0c0-1.7,0-56.2,0-57.9
	C48.9,7.9,70.3,7.9,71.9,7.9z"/>
<g>
	<path class="st2" d="M113.1,8.9v41.2c0,12.4-5.5,18.8-16.3,18.8c-1.4,0-2.9-0.1-4.4-0.4c2.1,1,4.6,1.5,7.4,1.5
		c11.7,0,15.5-7.8,15.5-17.9V8.9H113.1z"/>
	<path class="st2" d="M111.4,50.1c0,0,0-40.6,0-42.3c-1.4,0-8.4,0-9.7,0c0,1.7,0,43.7,0,43.7c0,3-1.3,6.6-4.8,6.6
		c-3.2,0-4.9-2.1-4.9-6.2c0,0,0-42.4,0-44.1c-1.4,0-8.4,0-9.7,0c0,1.7,0,42.3,0,42.3c0,11.3,4.9,17,14.5,17
		C106.6,67.2,111.4,61.6,111.4,50.1z"/>
	<path class="st2" d="M93.8,8.9V52c0,2.8,0.7,4.1,2.4,4.4c-0.2-0.8-0.3-1.6-0.3-2.5v-45H93.8z"/>
</g>
<path class="st3" d="M112.3,6.1H99.9v45.5c0,0.8-0.1,4.9-3,4.9c-2.2,0-3.1-1.3-3.1-4.5V6.1H80.5v44c0,15.5,8.8,18.8,16.3,18.8
	c10.8,0,16.3-6.3,16.3-18.8v-44H112.3z M111.4,7.9c0,1.7,0,42.3,0,42.3c0,11.4-4.8,17-14.6,17c-9.6,0-14.5-5.7-14.5-17
	c0,0,0-40.6,0-42.3c1.4,0,8.4,0,9.7,0C92,9.5,92,52,92,52c0,4.1,1.6,6.2,4.9,6.2c3.5,0,4.8-3.5,4.8-6.6c0,0,0-42,0-43.7
	C103,7.9,110,7.9,111.4,7.9z"/>
<g>
	<path class="st2" d="M150.2,7.9c-1.3,0-7.7,0-9.1,0c0.1,1.7,1.1,32.4,1.1,32.4l-1.9,0.3c0,0-8.4-31.4-8.7-32.7c-1.1,0-8.9,0-10.3,0
		c0,1.7,0,56.2,0,57.9c1.3,0,7.7,0,9.1,0c-0.1-1.7-1-32.7-1-32.7l1.4-1.7c0,0,8.9,33.1,9.2,34.4c1.1,0,8.8,0,10.2,0
		C150.2,64.1,150.2,9.5,150.2,7.9z"/>
	<path class="st2" d="M140.1,33.5c-0.1-1.9-0.1-4.3-0.2-6.9l-4.7-17.7h-1.6C135.1,14.5,138.4,27.1,140.1,33.5z"/>
	<path class="st2" d="M131.3,40.1c0.3,8.6,0.9,27.3,0.9,27.3h-8.8v1h10.9L133.7,49C132.8,45.7,131.9,42.5,131.3,40.1z"/>
	<polygon class="st2" points="151.9,8.9 151.9,67.5 142,67.5 142.3,68.5 154.1,68.5 154.1,8.9 	"/>
</g>
<path class="st3" d="M151,6.1h-11.8c0,0,0.6,18.8,0.9,27.4c-2.3-8.5-7.3-27.4-7.3-27.4h-13.4v61.4h12.7c0,0-0.6-18.7-0.9-27.3
	c2.3,8.6,7.3,27.3,7.3,27.3h13.3V6.1H151z M150.2,7.9c0,1.7,0,56.2,0,57.9c-1.4,0-9.1,0-10.2,0c-0.3-1.2-9.2-34.4-9.2-34.4l-1.4,1.7
	c0,0,1,30.9,1,32.7c-1.4,0-7.8,0-9.1,0c0-1.7,0-56.2,0-57.9c1.4,0,9.2,0,10.3,0c0.3,1.2,8.7,32.7,8.7,32.7l1.9-0.3
	c0,0-1-30.7-1.1-32.4C142.4,7.9,148.8,7.9,150.2,7.9z"/>
<g>
	<path class="st2" d="M170.4,7.9c-1.4,0-8.4,0-9.7,0c0,1.7,0,56.2,0,57.9c1.4,0,8.4,0,9.7,0C170.4,64.1,170.4,9.5,170.4,7.9z"/>
	<polygon class="st2" points="172.1,8.9 172.1,67.5 162.8,67.5 162.8,68.5 174.3,68.5 174.3,8.9 	"/>
</g>
<path class="st3" d="M171.3,6.1h-12.4v61.4h13.2V6.1H171.3z M170.4,7.9c0,1.7,0,56.2,0,57.9c-1.4,0-8.4,0-9.7,0c0-1.7,0-56.2,0-57.9
	C162,7.9,169,7.9,170.4,7.9z"/>
<g>
	<path class="st2" d="M210.1,47.6V23.4c0-11.1-5-16.9-14.6-16.9c-9.5,0-14.8,6-14.8,16.9v24.2c0,13.9,4.3,19.6,14.8,19.6
		C205.8,67.2,210.1,61.5,210.1,47.6z M190.4,48.8V24.3c0-2.4,0-8.9,5-8.9c4.9,0,4.9,6,4.9,8.9v24.5c0,2.8,0,9.4-4.9,9.4
		C192.1,58.2,190.4,55,190.4,48.8z"/>
	<path class="st2" d="M208.4,10.6c2.2,3.1,3.4,7.4,3.4,12.8v24.2c0,14.9-4.9,21.3-16.3,21.3c-1.7,0-3.3-0.1-4.7-0.4
		c2.1,1,4.6,1.5,7.7,1.5c11.6,0,15.5-7,15.5-20.4V25.3C214,18.5,212,13.5,208.4,10.6z"/>
	<path class="st2" d="M194.3,50.7V26.2c0-3.4,0.4-7.3,3.3-7.9c-0.5-0.7-1.2-1.1-2.2-1.1c-2.2,0-3.2,2.2-3.2,7.2v24.5
		c0,4.8,1,7.3,2.9,7.6C194.4,54.7,194.3,52.5,194.3,50.7z"/>
</g>
<path class="st3" d="M190.4,24.3v24.5c0,6.2,1.7,9.4,5,9.4c4.9,0,4.9-6.6,4.9-9.4V24.3c0-2.9,0-8.9-4.9-8.9
	C190.4,15.4,190.4,21.9,190.4,24.3z M192.2,48.8V24.3c0-4.9,1-7.2,3.2-7.2c2.6,0,3.2,2.7,3.2,7.2v24.5c0,5.3-1,7.6-3.1,7.6
	C193.3,56.4,192.2,53.9,192.2,48.8z M178.9,23.4v24.2c0,14.7,5.1,21.3,16.5,21.3c11.5,0,16.3-6.4,16.3-21.3V23.4
	c0-12-5.8-18.7-16.3-18.7C185,4.7,178.9,11.5,178.9,23.4z M180.7,47.6V23.4c0-10.9,5.3-16.9,14.8-16.9c9.5,0,14.6,5.9,14.6,16.9
	v24.2c0,13.9-4.2,19.6-14.6,19.6C185,67.2,180.7,61.5,180.7,47.6z"/>
<g>
	<path class="st2" d="M248.7,7.9c-1.3,0-7.7,0-9.1,0c0.1,1.7,1.1,32.4,1.1,32.4l-1.9,0.3c0,0-8.4-31.4-8.7-32.7c-1.1,0-8.9,0-10.3,0
		c0,1.7,0,56.2,0,57.9c1.3,0,7.7,0,9.1,0c-0.1-1.7-1-32.6-1-32.6l1.4-1.7c0,0,8.9,33.1,9.2,34.4c1.1,0,8.8,0,10.2,0
		C248.7,64.1,248.7,9.5,248.7,7.9z"/>
	<path class="st2" d="M238.7,33.5c-0.1-1.9-0.1-4.3-0.2-6.9l-4.7-17.7h-1.6C233.6,14.5,236.9,27.1,238.7,33.5z"/>
	<path class="st2" d="M229.8,40.2c0.3,8.6,0.9,27.3,0.9,27.3h-8.8v1h10.9L232.2,49C231.3,45.7,230.5,42.5,229.8,40.2z"/>
	<polygon class="st2" points="250.4,8.9 250.4,67.5 240.6,67.5 240.8,68.5 252.6,68.5 252.6,8.9 	"/>
</g>
<path class="st3" d="M249.6,6.1h-11.8c0,0,0.6,18.8,0.9,27.4c-2.3-8.5-7.3-27.4-7.3-27.4H218v61.4h12.7c0,0-0.6-18.7-0.9-27.3
	c2.3,8.6,7.3,27.3,7.3,27.3h13.3V6.1H249.6z M248.7,7.9c0,1.7,0,56.2,0,57.9c-1.4,0-9.1,0-10.2,0c-0.3-1.2-9.2-34.4-9.2-34.4
	l-1.4,1.7c0,0,1,30.9,1,32.6c-1.4,0-7.8,0-9.1,0c0-1.7,0-56.2,0-57.9c1.4,0,9.2,0,10.3,0c0.3,1.2,8.7,32.7,8.7,32.7l1.9-0.3
	c0,0-1-30.7-1.1-32.4C240.9,7.9,247.3,7.9,248.7,7.9z"/>
</svg>
